<svg width="30" height="30" viewBox="0 0 30 30" fill="none" xmlns="http://www.w3.org/2000/svg">
<g clip-path="url(#clip0_64_798)">
<path d="M13.125 0.0878925C10.5234 0.410158 8.13281 1.37696 5.97656 2.97656C5.09766 3.63281 3.63281 5.09766 2.97656 5.97656C1.35937 8.15625 0.404297 10.541 0.0820312 13.1836C-0.0175781 14.0508 -0.0175781 15.9492 0.0820312 16.8164C0.339844 18.9492 1.01953 20.918 2.12695 22.7637C3.30469 24.7324 5.26758 26.6953 7.23633 27.873C9.14648 29.0215 11.2441 29.7187 13.4414 29.9414C14.4434 30.0469 16.5234 29.9883 17.4316 29.8301C19.6289 29.4551 21.5684 28.6875 23.373 27.4746C24.1406 26.9648 25.0137 26.25 25.4766 25.7637C25.752 25.4707 25.7812 25.4121 25.7812 25.1777C25.7812 24.7734 25.459 24.5156 25.0488 24.5977C24.9668 24.6094 24.6562 24.8437 24.3574 25.1191C21.7676 27.498 18.5391 28.7695 15.0996 28.7695C14.5254 28.7695 13.8047 28.7402 13.4883 28.7051C12.334 28.582 11.0273 28.2539 9.94336 27.8262C9.4043 27.6094 8.67187 27.2637 8.67187 27.2285C8.67187 27.2168 8.93555 26.748 9.25781 26.1914C10.0547 24.8027 10.0547 24.7266 9.26367 24.2168C7.91016 23.3437 6.75 22.207 5.90039 20.918C5.26172 19.9453 4.62305 18.3926 4.37695 17.2266C4.27148 16.7461 4.16016 15.9551 4.16016 15.7266V15.5859H5.44336H6.7207L6.87891 15.4336C7.0957 15.2109 7.0957 14.7891 6.87891 14.5664L6.7207 14.4141H5.44336C4.25391 14.4141 4.16016 14.4082 4.16016 14.3086C4.16016 14.0449 4.28906 13.1602 4.40039 12.6504C4.55859 11.9473 4.52344 11.7012 4.25977 11.543C3.80273 11.2617 3.41602 11.4844 3.25195 12.1113C2.96484 13.2715 2.8418 15.123 2.98242 16.3477C3.29297 19.0781 4.50586 21.5918 6.46289 23.5605C6.99023 24.0879 7.85742 24.8086 8.29687 25.0781C8.41992 25.1543 8.41406 25.166 8.00976 25.8633C7.78711 26.2559 7.59375 26.584 7.58203 26.5898C7.57617 26.6016 7.41211 26.5078 7.21875 26.373C5.74219 25.3711 4.23633 23.7891 3.26953 22.2305C2.20898 20.5137 1.49414 18.4512 1.28906 16.5176C1.21289 15.791 1.21289 14.1973 1.29492 13.4883C1.41797 12.334 1.74609 11.0273 2.17383 9.94336C2.39062 9.4043 2.73633 8.67188 2.77148 8.67188C2.7832 8.67188 3.25195 8.93555 3.80859 9.25781C4.82812 9.84375 5.05664 9.92578 5.35547 9.80859C5.4082 9.79102 5.67187 9.43945 5.94727 9.0293C6.2168 8.625 6.65625 8.05078 6.91406 7.76367C7.17773 7.4707 7.41797 7.17188 7.45312 7.08984C7.65234 6.58008 7.05469 6.08203 6.56836 6.35156C6.38086 6.45703 5.58398 7.35938 5.17383 7.94531L4.83398 8.41992L4.13086 8.00977C3.74414 7.78125 3.41602 7.59375 3.41016 7.58203C3.39844 7.57617 3.49219 7.41211 3.62695 7.21875C4.62891 5.74219 6.21094 4.23633 7.76953 3.26953C9.48633 2.20899 11.5488 1.49414 13.4824 1.28906C14.209 1.21289 15.8027 1.21289 16.5117 1.29492C17.666 1.41797 18.9727 1.7461 20.0566 2.17383C20.5957 2.39063 21.3281 2.73633 21.3281 2.77149C21.3281 2.78321 21.0645 3.25196 20.7422 3.8086C20.25 4.66992 20.1562 4.875 20.1562 5.08594C20.1562 5.51953 20.5723 5.77735 20.9883 5.60742C21.1641 5.53125 21.2754 5.37305 21.7969 4.47656C22.125 3.89649 22.4062 3.41602 22.418 3.4043C22.4473 3.36914 23.3027 3.99024 23.8594 4.44727C24.5039 4.98633 25.2598 5.76563 25.7695 6.41016C26.1738 6.91406 26.625 7.55859 26.5898 7.58203C26.584 7.59375 26.2559 7.78125 25.8691 8.00977L25.1602 8.41992L24.873 8.00977C24.457 7.41211 23.6191 6.45117 23.4316 6.35156C22.9277 6.09375 22.3477 6.58008 22.5469 7.08984C22.582 7.17188 22.8223 7.4707 23.0801 7.76367C24.041 8.82422 24.8848 10.3008 25.3418 11.6953C25.4707 12.0938 25.6055 12.3984 25.6875 12.4746C26.1152 12.8789 26.8008 12.4863 26.6895 11.9004C26.625 11.5664 26.3145 10.6758 26.0449 10.0605L25.793 9.49219L26.209 9.25195C26.4434 9.11719 26.7539 8.92969 26.9121 8.8418C27.0645 8.74805 27.1992 8.67188 27.2168 8.67188C27.3281 8.67188 27.9785 10.2539 28.2363 11.1387C28.6172 12.4629 28.7695 13.5469 28.7695 15C28.7695 16.8164 28.5 18.2988 27.8613 19.9512C27.6152 20.5957 27.2695 21.3281 27.2168 21.3281C27.1992 21.3281 27.0645 21.252 26.9121 21.1582C26.7539 21.0703 26.4375 20.8828 26.209 20.748L25.7812 20.502L25.9043 20.2617C26.127 19.8281 26.5371 18.7031 26.6895 18.1172C26.9355 17.168 27.0176 16.5996 27.0527 15.6445L27.0879 14.7363L26.9238 14.5723L26.7598 14.4141H25.459H24.1582L24.1172 14.0859C24.0645 13.6406 23.9355 13.4297 23.6602 13.3535C23.3965 13.2832 23.0742 13.3945 22.9687 13.5996C22.9219 13.6875 22.8984 14.0566 22.9043 14.7598C22.916 16.0957 22.7344 17.0918 22.2891 18.0879L22.1484 18.4102L21.9023 18.2637C21.7617 18.1875 21.4336 17.9941 21.1699 17.8477L20.6953 17.5664L20.8594 17.1152C21.082 16.5117 21.2109 15.8027 21.2109 15.2051C21.2109 14.7598 21.1992 14.7129 21.0586 14.5664L20.9004 14.4141H19.1602H17.4199L17.2676 14.5664C17.1562 14.6777 17.1094 14.8008 17.0801 15.0469C17.0039 15.7266 16.8047 16.1309 16.3477 16.541C15.7852 17.0449 14.9766 17.1914 14.2559 16.9219C13.7871 16.752 13.248 16.2129 13.0781 15.7441C12.8086 15.0234 12.9551 14.2148 13.459 13.6523C13.8691 13.1953 14.2734 12.9961 14.9531 12.9199C15.4043 12.8672 15.5859 12.6914 15.5859 12.3047C15.5859 12.082 15.5566 11.9941 15.4336 11.8711C15.293 11.7363 15.2344 11.7188 14.8711 11.7188C14.0625 11.7188 13.3125 12.0469 12.6797 12.6797C12.2461 13.1133 12 13.5117 11.8359 14.0625L11.7422 14.3848L10.8809 14.4023L10.0137 14.4199L10.043 14.2852C10.2598 13.2305 10.5 12.6738 11.0508 11.9473C11.6191 11.2031 12.5039 10.5762 13.4648 10.248C14.0098 10.0605 14.0684 10.0547 14.9414 10.0488C15.9961 10.0488 16.3184 10.1133 17.1387 10.5117C18.0059 10.9277 18.627 11.4668 19.166 12.2578C19.2949 12.4395 19.4531 12.6328 19.5234 12.6797C19.8047 12.8789 20.3555 12.7207 20.4316 12.4219C20.5078 12.123 20.4609 11.9531 20.209 11.5605C19.9629 11.1797 19.1191 10.2715 18.7969 10.043L18.6445 9.93164L19.043 9.24023C19.2598 8.85938 19.4531 8.53711 19.4707 8.51367C19.5176 8.47266 19.8105 8.68945 20.3262 9.13477C20.748 9.50391 21.2227 10.0664 21.668 10.7344C22.0078 11.2383 22.1016 11.3086 22.4121 11.3086C22.6875 11.3086 22.8281 11.2266 22.9453 11.0039C23.0859 10.7402 23.0215 10.4941 22.6699 9.97852C21.5566 8.30859 20.1445 7.17188 18.3164 6.46289C17.7012 6.22266 17.4902 6.23438 17.2617 6.50977C17.0859 6.71484 17.0684 6.90234 17.1973 7.17773C17.2969 7.37695 17.3262 7.39453 17.9648 7.64648C18.1875 7.73438 18.3809 7.81641 18.3926 7.82812C18.4043 7.83984 18.2227 8.17383 17.9883 8.57812L17.5723 9.30469L17.1152 9.14062C15.8145 8.66602 14.1797 8.66602 12.873 9.14062C11.7773 9.54492 10.793 10.2539 10.0781 11.1738L9.93164 11.3555L9.22851 10.9512C8.8418 10.7285 8.51953 10.5293 8.50781 10.5C8.48437 10.4297 9.22851 9.52734 9.5625 9.22852C10.459 8.42578 11.0039 8.0918 12.457 7.47656C12.9844 7.24805 13.043 6.58594 12.5566 6.35742C12.3047 6.23438 12.1465 6.26367 11.4902 6.5332C11.2148 6.63867 10.9746 6.7207 10.957 6.70898C10.8984 6.67383 10.125 5.32617 10.1484 5.30274C10.3301 5.14453 11.5312 4.6875 12.2754 4.49414C12.8906 4.33594 13.9219 4.16016 14.2324 4.16016H14.4141V5.44336V6.7207L14.5664 6.87891C14.7891 7.0957 15.2109 7.0957 15.4336 6.87891L15.5859 6.7207V5.44336C15.5859 4.25391 15.5918 4.16016 15.6914 4.16016C15.9551 4.16016 16.8398 4.28906 17.3496 4.40039C18.0527 4.5586 18.2988 4.52344 18.457 4.25977C18.7383 3.80274 18.5156 3.41602 17.8887 3.25196C16.7461 2.96485 14.8945 2.84766 13.6641 2.98242C12.2109 3.14063 10.6934 3.59766 9.41016 4.26563C8.45508 4.76953 8.44336 4.89258 9.25781 6.29883C9.58008 6.86133 9.84375 7.3418 9.84375 7.37109C9.84375 7.40039 9.73828 7.49414 9.60937 7.58203C8.58984 8.25586 7.39453 9.67969 6.76758 10.9629C6.45703 11.6016 6.43945 11.8184 6.66797 12.0703C6.89648 12.334 7.23633 12.3691 7.48242 12.1641C7.58203 12.082 7.69336 11.9297 7.73437 11.8242C7.78125 11.7188 7.82227 11.6191 7.82812 11.6074C7.83984 11.5957 8.17383 11.7773 8.57812 12.0117L9.30469 12.4277L9.14062 12.8848C8.66601 14.1797 8.66601 15.8203 9.14062 17.1152L9.30469 17.5723L8.57812 17.9883C8.17383 18.2227 7.83984 18.4043 7.82812 18.3926C7.82227 18.3809 7.76367 18.2578 7.70508 18.1172C7.48242 17.5957 7.04297 17.4316 6.68555 17.7305C6.4043 17.9648 6.39844 18.1816 6.65039 18.7676C7.40039 20.5195 8.83008 22.0547 10.6113 23.0508C11.1621 23.3555 12.1172 23.7305 12.334 23.7305C12.7441 23.7305 13.0254 23.2676 12.8613 22.8691C12.7969 22.7109 12.7031 22.6406 12.4395 22.5234C11.4492 22.0898 11.25 21.9902 10.8984 21.7793C10.3477 21.4453 9.62109 20.8594 9.25781 20.4668C8.8418 20.0098 8.47266 19.5176 8.51367 19.4707C8.53711 19.4531 8.85937 19.2598 9.24023 19.043L9.93164 18.6445L10.0781 18.8262C11.0039 20.0098 12.3633 20.8418 13.8281 21.1172C14.4492 21.2344 15.6211 21.2402 16.1836 21.123C17.0918 20.9355 18.0469 20.5312 18.2754 20.2383C18.4629 19.998 18.4395 19.6641 18.2285 19.4473C18 19.2187 17.7656 19.2246 17.2207 19.4766C16.793 19.6699 16.1543 19.8809 15.7734 19.9453L15.5801 19.9805L15.5977 19.1191L15.6152 18.2578L15.9492 18.1582C16.9805 17.8535 17.8535 16.9805 18.1582 15.9492L18.2578 15.6152L19.1191 15.5977L19.9805 15.5801L19.9453 15.7734C19.8809 16.1543 19.6699 16.793 19.4766 17.2207C19.248 17.7129 19.2246 17.9648 19.3945 18.1816C19.459 18.2578 19.957 18.5859 20.5078 18.8965C21.0527 19.2129 21.5039 19.4824 21.5039 19.5C21.5039 19.5176 21.3984 19.6758 21.2637 19.8457C20.877 20.3613 20.8477 20.6836 21.1641 20.9473C21.2871 21.0527 21.4043 21.0937 21.5742 21.0937C21.8672 21.0937 22.0547 20.9121 22.5937 20.127C23.4082 18.9316 23.9648 17.4141 24.1113 15.9785L24.1523 15.5859H24.9961H25.8398V15.7617C25.8398 16.0781 25.6641 17.127 25.5117 17.7246C25.1543 19.125 24.4629 20.5137 23.5254 21.709C23.0449 22.3184 22.0723 23.2676 21.4512 23.7246L20.9648 24.082L20.3613 23.0449C19.6992 21.8965 19.582 21.7734 19.1895 21.8203C18.873 21.8555 18.6914 22.0723 18.6914 22.3945C18.6914 22.5937 18.7969 22.8164 19.2832 23.6602C19.6055 24.2227 19.8633 24.6855 19.8516 24.6973C19.7871 24.7617 18.8203 25.166 18.375 25.3184C17.7246 25.5352 16.6875 25.7578 16.0547 25.8164L15.5859 25.8574V25.0078V24.1582L15.9551 24.1172C16.6816 24.041 16.9219 23.9707 17.0801 23.7832C17.3379 23.4727 17.2324 22.998 16.8691 22.8516C16.7227 22.7871 16.5879 22.7871 16.1719 22.8398C15.8906 22.8809 15.5449 22.9102 15.4043 22.9102C14.9648 22.9102 14.7129 22.9805 14.5605 23.1328L14.4141 23.2793V24.5566C14.4141 25.7461 14.4082 25.8398 14.3086 25.8398C14.0449 25.8398 13.1602 25.7109 12.6504 25.5996C11.9473 25.4414 11.7012 25.4766 11.543 25.7402C11.3848 25.998 11.3965 26.2617 11.5723 26.4727C11.7246 26.6543 12.1406 26.7891 13.125 26.9648C13.7285 27.0703 16.2773 27.0703 16.875 26.959C19.0664 26.5664 20.9707 25.7285 22.5293 24.4746C23.3027 23.8477 24.3926 22.6875 24.9316 21.9082L25.1543 21.5801L26.2031 22.1895C27.0879 22.6992 27.293 22.793 27.498 22.793C27.6328 22.793 27.791 22.752 27.8437 22.7109C27.9902 22.5996 28.4473 21.7617 28.7754 21C29.2793 19.8281 29.6367 18.5918 29.8594 17.2852C29.9883 16.5176 30.0352 14.3379 29.9473 13.4414C29.7187 11.2441 29.0215 9.14648 27.873 7.23633C26.6895 5.26758 24.7324 3.31055 22.7637 2.12696C20.918 1.01953 18.9492 0.339846 16.8164 0.0820332C15.9785 -0.0175762 13.957 -0.0117168 13.125 0.0878925ZM11.8418 15.9492C12.1465 16.9805 13.0195 17.8535 14.0508 18.1582L14.3848 18.2578L14.4023 19.1133L14.4199 19.9746L14.1973 19.9395C13.7578 19.875 12.9141 19.5586 12.4512 19.2891C11.8301 18.9258 11.0742 18.1699 10.7109 17.5488C10.4414 17.0859 10.125 16.2422 10.0605 15.8027L10.0254 15.5801L10.8867 15.5977L11.7422 15.6152L11.8418 15.9492Z" fill="white"/>
</g>
<defs>
<clipPath id="clip0_64_798">
<rect width="30" height="30" fill="white"/>
</clipPath>
</defs>
</svg>
