<svg width="14" height="14" viewBox="0 0 14 14" fill="none" xmlns="http://www.w3.org/2000/svg">
<g clip-path="url(#clip0_65_1182)">
<path d="M6.11087 0.0316668C5.07693 0.166383 3.94531 0.590739 3.10334 1.15991C1.43286 2.28816 0.331551 4.03947 0.0486471 6.01306C-0.0119752 6.44752 -0.0220789 7.40738 0.0284397 7.84184C0.281032 9.87268 1.39244 11.6846 3.10334 12.8398C3.96552 13.4225 5.08366 13.8367 6.15802 13.9681C6.52513 14.0152 7.47488 14.0152 7.84198 13.9681C9.06789 13.8165 10.2467 13.3416 11.2368 12.6007C11.5601 12.3548 12.126 11.8126 12.4089 11.4758C13.2576 10.4587 13.8166 9.14522 13.9749 7.79469C14.0322 7.30634 13.9985 6.20504 13.9076 5.73353C13.8234 5.28897 13.6887 4.80399 13.6146 4.69285C13.426 4.40657 12.9814 4.37963 12.7456 4.64233C12.5739 4.8343 12.5671 4.94881 12.7052 5.4843C12.8703 6.12757 12.9073 6.48794 12.8837 7.21204C12.8635 7.89572 12.7995 8.25946 12.6042 8.85221C12.2943 9.78512 11.7824 10.5833 11.0482 11.2805C10.048 12.2302 8.72774 12.8129 7.39405 12.887C6.28601 12.9509 5.32615 12.7556 4.3562 12.2706C4.11707 12.1494 3.77355 11.9473 3.59842 11.8227C3.18753 11.5331 2.4668 10.8123 2.17716 10.4014C1.73597 9.77838 1.3756 8.94314 1.20047 8.14495C1.13311 7.83173 1.12638 7.69702 1.12638 6.99986C1.12638 6.3027 1.13311 6.16799 1.20047 5.85477C1.3756 5.05658 1.73597 4.22134 2.17716 3.59828C2.4668 3.18739 3.18753 2.46666 3.59842 2.17702C3.9992 1.89412 4.68625 1.54722 5.14765 1.39567C6.85181 0.833228 8.7109 1.07572 10.2197 2.05241C10.5262 2.25112 10.5632 2.26795 10.7451 2.26795C10.9607 2.26795 11.0718 2.20397 11.2031 2.01536C11.2537 1.9379 11.2772 1.8537 11.2772 1.73919C11.2772 1.48323 11.1998 1.35862 10.927 1.17675C10.0311 0.573899 9.01064 0.18659 7.94638 0.0451384C7.55234 -0.00874805 6.48471 -0.0154839 6.11087 0.0316668Z" fill="#CC013D"/>
<path d="M13.2071 0.758702C13.1397 0.792381 12.0519 2.06882 10.0581 4.46003C8.38759 6.46393 7.01012 8.10747 7.00002 8.10747C6.98991 8.10747 6.43084 7.44399 5.75389 6.63569C5.07694 5.8274 4.47409 5.13024 4.4101 5.08983C4.18445 4.93827 3.83082 5.01236 3.6759 5.24475C3.56812 5.40304 3.54455 5.57144 3.6018 5.73646C3.66579 5.91496 6.58913 9.40074 6.73732 9.47821C6.87204 9.54893 7.128 9.54893 7.26271 9.47821C7.33007 9.44453 8.56609 7.98959 10.6205 5.53102C12.4122 3.38904 13.9042 1.59057 13.9413 1.52995C14.0255 1.39187 14.0255 1.1258 13.9413 0.970881C13.8167 0.735127 13.463 0.634089 13.2071 0.758702Z" fill="#CC013D"/>
</g>
<defs>
<clipPath id="clip0_65_1182">
<rect width="14" height="14" fill="white"/>
</clipPath>
</defs>
</svg>
