<svg width="30" height="30" viewBox="0 0 30 30" fill="none" xmlns="http://www.w3.org/2000/svg">
<path d="M5.41992 0.111328C4.78711 0.339844 4.25391 0.820312 3.94922 1.43555L3.7793 1.78711V15V28.2129L3.94922 28.5645C4.18945 29.0508 4.66406 29.5312 5.14453 29.7715L5.53711 29.9707H15H24.4629L24.8555 29.7715C25.3359 29.5312 25.8105 29.0508 26.0508 28.5645L26.2207 28.2129L26.2383 17.373L26.25 6.53906L22.9805 3.26953L19.7109 0H12.7148C6.10547 0.00585938 5.69531 0.0117188 5.41992 0.111328ZM18.7617 3.49805L18.7793 5.71289L18.9492 6.06445C19.1895 6.55078 19.6641 7.03125 20.1445 7.27148L20.5371 7.4707L22.752 7.48828L24.9609 7.50586V17.625C24.9609 27.3516 24.9551 27.7559 24.8496 27.9785C24.7148 28.2656 24.4746 28.5 24.1875 28.6172C23.9941 28.6992 22.9746 28.7109 15 28.7109C7.02539 28.7109 6.00586 28.6992 5.8125 28.6172C5.52539 28.5 5.28516 28.2656 5.15039 27.9785C5.04492 27.75 5.03906 27.2812 5.03906 15.0117C5.03906 3.63281 5.05078 2.25586 5.13281 2.0625C5.25 1.77539 5.48438 1.53516 5.77148 1.40039C5.99414 1.29492 6.29883 1.28906 12.375 1.28906H18.7441L18.7617 3.49805ZM22.5469 6.19922C20.9766 6.2168 20.8008 6.19336 20.4668 5.90039C20.0625 5.54883 20.0391 5.43164 20.0391 3.75V2.25586L22.002 4.21875L23.9648 6.18164L22.5469 6.19922Z" fill="white"/>
<path d="M7.82812 6.29883C7.57617 6.43359 7.50586 6.55664 7.5 6.87305C7.5 7.11328 7.5293 7.18359 7.66992 7.33008L7.83984 7.5H11.877H15.9141L16.0781 7.33594C16.3828 7.00781 16.3184 6.49805 15.9375 6.29883C15.6797 6.16406 8.08594 6.16406 7.82812 6.29883Z" fill="white"/>
<path d="M7.82812 10.0488C7.57617 10.1836 7.50586 10.3125 7.5 10.623C7.5 10.8633 7.5293 10.9336 7.66992 11.0801L7.83984 11.25H15H22.1602L22.3301 11.0801C22.4707 10.9336 22.5 10.8574 22.5 10.623C22.5 10.377 22.4707 10.3066 22.3184 10.1602L22.1426 9.99023L15.0703 9.97266C8.83594 9.96094 7.98047 9.97266 7.82812 10.0488Z" fill="white"/>
<path d="M7.91016 13.752C7.86328 13.7695 7.75195 13.8516 7.66406 13.9336C7.5293 14.0566 7.5 14.1328 7.5 14.373C7.5 14.6074 7.5293 14.6836 7.66992 14.8301L7.83984 15H15H22.1602L22.3301 14.8301C22.4707 14.6836 22.5 14.6074 22.5 14.373C22.5 14.127 22.4707 14.0566 22.3184 13.9102L22.1426 13.7402L15.0703 13.7285C11.1797 13.7227 7.95703 13.7344 7.91016 13.752Z" fill="white"/>
<path d="M12.7911 17.5723C12.6915 17.6367 12.5743 17.7422 12.545 17.8066C12.4044 18.0703 12.5274 18.5625 12.7676 18.6914C12.8438 18.7324 14.4493 18.75 17.5196 18.75H22.1602L22.3301 18.5801C22.4708 18.4336 22.5001 18.3574 22.5001 18.123C22.5001 17.877 22.4708 17.8066 22.3184 17.6602L22.1426 17.4902L17.5606 17.4727C13.1016 17.4609 12.9727 17.4609 12.7911 17.5723Z" fill="white"/>
<path d="M8.84766 20.1035C8.4375 20.3145 8.01562 20.7715 7.76367 21.293C7.55273 21.7148 7.5293 21.8027 7.51172 22.3242C7.48242 23.0098 7.58789 23.3848 7.99805 24.1113C8.14453 24.3633 8.26172 24.5801 8.26172 24.5977C8.26172 24.6152 8.0918 24.7852 7.88086 24.9844C7.51172 25.3301 7.5 25.3535 7.5 25.623C7.5 25.8574 7.5293 25.9395 7.66992 26.0801C7.81055 26.2148 7.89258 26.25 8.09766 26.25C8.36719 26.25 8.50195 26.1797 8.92383 25.8223L9.1875 25.5996L9.48047 25.8047C9.92578 26.127 10.2363 26.25 10.6406 26.25C11.25 26.25 11.666 25.8867 12.1699 24.9199L12.3867 24.5039L12.5801 25.0312C12.9082 25.9512 13.1895 26.25 13.7461 26.25C14.1094 26.25 14.4492 26.0859 15.0703 25.623C15.6152 25.2129 16.7227 24.2227 17.1855 23.7422C17.4668 23.4434 17.5195 23.3555 17.5195 23.1738C17.5195 22.9219 17.3906 22.6465 17.2324 22.5586C17.168 22.5293 16.998 22.5 16.8516 22.5C16.5879 22.5 16.5645 22.5176 15.832 23.1973C15.0527 23.9297 14.1621 24.6973 13.9922 24.791C13.9043 24.8379 13.8633 24.75 13.6465 24.0703C13.2305 22.7461 13.0547 22.5 12.5039 22.5C12.0293 22.5 11.8418 22.7051 11.25 23.8359C10.623 25.0547 10.6641 25.0078 10.4121 24.8496C10.0488 24.627 10.0488 24.6211 10.4531 24C11.0215 23.1445 11.209 22.6582 11.2383 21.9609C11.2617 21.457 11.25 21.3633 11.1211 21.082C10.9102 20.6309 10.7051 20.4199 10.2773 20.209C9.76172 19.957 9.22266 19.916 8.84766 20.1035ZM9.63867 21.3516C9.97266 21.4922 10.043 21.7852 9.86719 22.3066C9.76172 22.6172 9.26367 23.4961 9.1875 23.4961C9.16406 23.4961 9.07031 23.3555 8.98242 23.1855C8.85352 22.9395 8.82422 22.8047 8.82422 22.4707C8.82422 22.0254 8.89453 21.8262 9.20508 21.4746C9.41602 21.2344 9.38086 21.2461 9.63867 21.3516Z" fill="white"/>
</svg>
