<svg width="30" height="30" viewBox="0 0 30 30" fill="none" xmlns="http://www.w3.org/2000/svg">
<g clip-path="url(#clip0_64_777)">
<path d="M13.5937 0.0411053C10.6992 0.339933 8.20308 1.31259 5.87105 3.05868C5.13863 3.60946 3.60347 5.13876 3.05269 5.8829C1.48238 7.9747 0.556597 10.172 0.146441 12.7501C0.0175346 13.5645 -0.0351998 15.5099 0.0526908 16.4415C0.316363 19.2364 1.31832 21.8028 3.05269 24.1173C3.60347 24.8614 5.13863 26.3907 5.87105 26.9415C7.57613 28.2188 9.3398 29.0684 11.2968 29.5606C12.5039 29.8595 13.1835 29.9474 14.6191 29.9825C16.4648 30.0294 17.8007 29.8595 19.3945 29.3731C24.0351 27.9727 27.8203 24.252 29.2968 19.6407C29.5253 18.9376 29.7246 18.0997 29.8652 17.2559C30.0175 16.3302 30.0175 13.67 29.8652 12.7442C29.3261 9.50985 28.0253 6.87314 25.8515 4.61728C23.3496 2.02743 20.291 0.498137 16.7753 0.0879803C16.1015 0.00594902 14.1796 -0.0174885 13.5937 0.0411053ZM14.121 3.53915C14.121 5.22665 14.121 5.26181 14.2558 5.45517C14.6308 6.01767 15.4394 5.98251 15.7851 5.39071C15.9023 5.19736 15.9082 5.07431 15.9257 3.49814L15.9433 1.81064L16.1015 1.83993C16.1894 1.85751 16.4296 1.88681 16.6406 1.90439C18.164 2.05673 20.2441 2.75986 21.6679 3.60946C22.2363 3.94931 23.3085 4.72861 23.7773 5.14462L24.0293 5.36728L23.4785 5.95907C22.8984 6.57431 22.7519 6.84384 22.8164 7.16024C22.9101 7.61728 23.2617 7.91024 23.7304 7.91024C24.0644 7.91024 24.1523 7.85165 24.7617 7.25399L25.2949 6.72665L25.5878 7.13095C26.6425 8.55478 27.3867 10.1192 27.8027 11.7716C27.9316 12.2989 28.0781 13.1427 28.1484 13.7813L28.1777 14.0567L26.455 14.0743C24.8144 14.0919 24.7265 14.0977 24.5683 14.2149C24 14.6368 23.9941 15.4161 24.5625 15.7618C24.7441 15.8731 24.8613 15.879 26.4726 15.879H28.1894L28.1601 16.1427C28.1425 16.2892 28.1074 16.5294 28.0898 16.6817C28.0371 17.1505 27.8437 18.1056 27.6914 18.6329C27.2343 20.2384 26.332 21.9845 25.3007 23.2501L24.9433 23.6837L24.4394 23.1856C23.789 22.5528 23.7128 22.5001 23.3496 22.5001C22.8222 22.5001 22.4414 22.8634 22.4414 23.3673C22.4414 23.713 22.5351 23.8595 23.1093 24.4337C23.3847 24.7032 23.6132 24.9493 23.6132 24.9669C23.6132 25.0431 22.7988 25.6642 22.166 26.0802C20.5781 27.1114 18.3574 27.92 16.6406 28.0958C16.4296 28.1134 16.1894 28.1427 16.1015 28.1602L15.9433 28.1895L15.9257 26.461C15.9082 24.8145 15.9023 24.7267 15.7851 24.5684C15.375 24.0118 14.6191 24.0001 14.2558 24.545C14.121 24.7384 14.121 24.7735 14.121 26.4669V28.1837L13.7871 28.1485C11.5664 27.92 9.5273 27.1993 7.76949 26.0333L7.09566 25.5821L7.61128 25.0489C8.17964 24.4688 8.30855 24.211 8.23824 23.8126C8.15035 23.3614 7.61128 23.0333 7.12496 23.1446C6.94332 23.1856 6.76753 23.3204 6.29878 23.7892L5.70699 24.3809L5.26753 23.8946C4.14839 22.6524 3.3105 21.3165 2.70699 19.7755C2.31441 18.7677 1.99214 17.4962 1.91011 16.6114C1.88668 16.3829 1.85738 16.1309 1.8398 16.0372L1.80464 15.879H3.53316C5.22652 15.879 5.26168 15.879 5.45503 15.7442C5.9941 15.3868 5.98238 14.6251 5.42574 14.2149C5.27339 14.0977 5.17378 14.0919 3.54488 14.0743L1.82808 14.0567L1.85738 13.8106C2.13277 11.2794 2.94722 9.12313 4.35347 7.2247L4.70503 6.74423L5.15621 7.14853C5.40816 7.37118 5.64253 7.5997 5.68355 7.64657C5.81246 7.80478 6.07613 7.91024 6.33394 7.91024C6.89644 7.91024 7.31832 7.42392 7.23628 6.86728C7.20113 6.62118 7.14253 6.53915 6.58589 5.98251C6.25191 5.64267 5.99996 5.3497 6.02339 5.33212C6.04683 5.30868 6.25191 5.13876 6.47457 4.93954C8.373 3.31064 10.7988 2.23837 13.33 1.90439C13.6523 1.86337 13.9628 1.82821 14.0214 1.82236C14.1152 1.8165 14.121 1.93368 14.121 3.53915Z" fill="white"/>
<path d="M14.6191 7.32438C14.5547 7.34782 14.4258 7.45329 14.3262 7.55876L14.1504 7.7404V11.5724V15.3986L14.2969 15.5568C14.4492 15.7267 19.1602 19.5588 19.4941 19.7931C19.9219 20.092 20.5078 19.9924 20.7832 19.5763C20.9414 19.342 20.9648 18.8908 20.8301 18.633C20.7773 18.5334 19.7285 17.6369 18.3398 16.5177L15.9434 14.5724L15.9258 11.2267L15.9082 7.88102L15.7734 7.67008C15.7031 7.5529 15.5508 7.41227 15.4453 7.35954C15.2344 7.25993 14.8125 7.24235 14.6191 7.32438Z" fill="white"/>
</g>
<defs>
<clipPath id="clip0_64_777">
<rect width="30" height="30" fill="white"/>
</clipPath>
</defs>
</svg>
