<svg width="30" height="30" viewBox="0 0 30 30" fill="none" xmlns="http://www.w3.org/2000/svg">
<path d="M9.2 2.12705C8.75625 2.30205 8.3 2.7583 8.13125 3.21455C8 3.5583 8 3.6458 8 8.77705V13.9958H5.33125C2.775 13.9958 2.65 14.0021 2.45 14.1208C2.15 14.3021 2 14.5896 2 14.9833C2 15.1646 2.03125 15.3771 2.06875 15.4521C2.16875 15.6458 14.3063 27.7958 14.5125 27.9083C14.7312 28.0208 15.2688 28.0208 15.4875 27.9083C15.6938 27.7958 27.8313 15.6458 27.9312 15.4521C27.9688 15.3771 28 15.1646 28 14.9833C28 14.5896 27.85 14.3021 27.55 14.1208C27.35 14.0021 27.225 13.9958 24.675 13.9958H22V8.77705C22 3.6458 22 3.5583 21.8687 3.21455C21.6938 2.75205 21.2437 2.30205 20.7812 2.12705C20.4375 1.9958 20.3563 1.9958 14.9812 2.00205C9.65625 2.00205 9.525 2.0083 9.2 2.12705ZM20 9.66455C20 15.2146 20.0063 15.3458 20.125 15.5458C20.1938 15.6583 20.3375 15.8021 20.45 15.8708C20.6438 15.9896 20.7688 15.9958 22.5938 15.9958H24.5312L19.7625 20.7583L15 25.5271L10.2375 20.7583L5.46875 15.9958H7.40625C9.23125 15.9958 9.35625 15.9896 9.55 15.8708C9.6625 15.8021 9.80625 15.6583 9.875 15.5458C9.99375 15.3458 10 15.2146 10 9.66455V3.9958H15H20V9.66455Z" fill="white"/>
</svg>
