<svg width="30" height="30" viewBox="0 0 30 30" fill="none" xmlns="http://www.w3.org/2000/svg">
<g clip-path="url(#clip0_66_1350)">
<path d="M12.832 4.02538C12.75 4.0371 12.5156 4.10155 12.3105 4.16601C11.0039 4.57616 10.0254 5.54882 9.57422 6.88476C9.43359 7.30663 9.41602 7.46484 9.38672 8.39648C9.35742 9.58007 9.41016 10.0664 9.67383 10.8457C9.82617 11.2969 9.84375 11.4375 9.84375 12.0586C9.84375 13.6992 10.377 15.0586 11.4199 16.084L11.7188 16.3711V17.0859V17.8008L11.2793 18.2695C11.0391 18.5215 10.8164 18.7969 10.7871 18.8789C10.7402 18.9961 10.5586 19.084 9.53906 19.4473C8.88867 19.6816 8.17383 19.957 7.95117 20.0566C7.60547 20.209 7.53516 20.2266 7.40039 20.1621L7.24219 20.0918L7.61133 19.8809C8.0625 19.6289 8.68359 19.0547 8.81836 18.7676C8.91797 18.5625 8.91797 18.5391 8.79492 18.1699C8.60156 17.5664 8.55469 17.2383 8.4668 15.7031C8.37305 14.1035 8.31445 13.7988 7.95703 13.0664C7.62305 12.3926 6.9668 11.7246 6.32227 11.4082C4.71094 10.6172 2.73633 11.0859 1.73438 12.498C1.10156 13.3945 0.955078 13.916 0.873047 15.6152C0.814453 16.916 0.703125 17.8008 0.556641 18.1465C0.410156 18.498 0.445312 18.709 0.697266 19.0254C0.972656 19.3828 1.30664 19.6465 1.77539 19.8984L2.12695 20.0859L1.42383 20.4375C0.873047 20.7129 0.662109 20.8594 0.451172 21.0879C0.0117188 21.5801 0 21.6562 0 23.8594C0 25.7051 0.00585938 25.7871 0.117188 25.8984C0.257812 26.0391 0.568359 26.0566 0.738281 25.9336C0.84375 25.8516 0.849609 25.7461 0.878906 23.9824C0.908203 21.9434 0.914062 21.9141 1.27734 21.6152C1.37109 21.5391 1.76367 21.3164 2.15039 21.1289L2.85352 20.7832L3.26953 21.1348C3.80859 21.6035 4.21289 21.7617 4.77539 21.7266C5.2793 21.6914 5.64844 21.5156 6.11719 21.0879L6.45117 20.7832L6.66211 20.8828C6.82031 20.959 6.85547 21.0059 6.82031 21.082C6.56836 21.6621 6.56836 21.6973 6.5625 23.7656C6.5625 25.6934 6.56836 25.7637 6.67969 25.8867C6.84375 26.0625 7.20703 26.0625 7.35938 25.8926C7.46484 25.7754 7.4707 25.6289 7.5 23.7656L7.5293 21.7676L7.69336 21.4863C7.78125 21.334 7.96289 21.1406 8.08594 21.0586C8.27344 20.9297 11.0566 19.8691 11.2031 19.8633C11.2266 19.8633 11.5137 20.2617 11.8418 20.7539C12.5098 21.75 12.6387 21.8906 12.9609 21.9726C13.3711 22.084 13.5762 22.0019 14.0801 21.5156L14.5312 21.0762V23.3906C14.5312 25.6465 14.5371 25.7109 14.6543 25.8633C14.8125 26.0684 15.1582 26.0742 15.3398 25.8809C15.4688 25.7461 15.4688 25.7285 15.4688 23.4082V21.0762L15.8965 21.4863C16.4648 22.043 16.793 22.1309 17.3027 21.873C17.4023 21.8262 17.7012 21.4394 18.1055 20.8301C18.4629 20.2969 18.7676 19.8633 18.7852 19.8633C18.8672 19.8633 21.5859 20.8711 21.7852 20.9707C22.0664 21.1172 22.2305 21.293 22.377 21.6211C22.4883 21.8672 22.5 22.0019 22.5 23.707C22.5 25.582 22.5293 25.8457 22.7344 25.957C22.916 26.0508 23.1973 26.0215 23.3203 25.8984C23.4316 25.7871 23.4375 25.7051 23.4375 23.7598C23.4375 21.873 23.4316 21.7207 23.3203 21.4219C23.25 21.2461 23.1211 20.9883 23.0273 20.8476L22.8574 20.5957L23.0742 20.5195L23.2852 20.4492L23.8301 20.9883L24.3691 21.5273L24.3867 23.6484C24.4043 25.6406 24.4102 25.7754 24.5156 25.8926C24.668 26.0566 25.0312 26.0625 25.1953 25.8984C25.3066 25.7871 25.3125 25.7051 25.3125 23.6894V21.5918L25.875 21.0293L26.4316 20.4726L27.4863 20.7715C28.5938 21.0937 28.7812 21.1875 28.9746 21.5098C29.0859 21.6973 29.0918 21.8437 29.1211 23.7773C29.1504 25.7402 29.1562 25.8516 29.2617 25.9336C29.4316 26.0566 29.7422 26.0391 29.8828 25.8984C29.9941 25.7871 30 25.7051 30 23.6894C30 22.4414 29.9766 21.5039 29.9414 21.375C29.8477 21.0527 29.5371 20.625 29.2324 20.4082C29.0332 20.2676 28.6992 20.1387 27.9141 19.916C27.3398 19.7519 26.8301 19.5762 26.7949 19.5234C26.7539 19.4707 26.7188 19.3184 26.7188 19.1836C26.7188 18.9551 26.7539 18.9082 27.1523 18.5098C27.8613 17.7949 28.125 17.1328 28.125 16.043C28.125 15.4863 28.1426 15.3691 28.2656 15.1289C28.5645 14.5371 28.5938 14.3203 28.5938 12.7441C28.5938 11.2793 28.5938 11.2676 28.459 11.1445C28.3242 11.0156 28.3066 11.0156 26.0039 11.0156C24.709 11.0156 23.5488 11.0391 23.373 11.0742C22.8457 11.1738 22.2598 11.4961 21.8906 11.9004C21.3398 12.4922 21.1406 13.0137 21.1289 13.8574C21.123 14.3379 21.1406 14.4258 21.3398 14.8828C21.5273 15.3223 21.5566 15.457 21.5859 16.0254C21.6387 17.1269 21.9082 17.7891 22.5703 18.4746L22.9688 18.8848V19.2246V19.5644L22.459 19.7168C22.1719 19.8047 21.9082 19.8809 21.8613 19.8984C21.8145 19.916 21.2109 19.7226 20.5195 19.4707C19.4707 19.0898 19.2539 18.9902 19.2129 18.873C19.1836 18.7969 18.9609 18.5215 18.7207 18.2578L18.2812 17.7832V17.1094V16.4297L18.6094 16.1133C19.2363 15.498 19.7227 14.6836 19.9863 13.7988C20.0859 13.4766 20.1152 13.1719 20.1387 12.3633C20.1621 11.4609 20.1855 11.2851 20.3145 10.9277C20.6074 10.1074 20.625 9.86132 20.625 6.93749C20.625 4.29491 20.6191 4.21288 20.5078 4.10155C20.3906 3.98437 20.3203 3.98437 16.6875 3.99023C14.6484 3.99609 12.9141 4.01366 12.832 4.02538ZM19.6758 7.42382L19.6582 9.93163L19.4414 10.5469C19.2305 11.1504 19.2246 11.1797 19.2012 12.2168C19.1719 13.3887 19.1133 13.6465 18.7031 14.4434C18.4336 14.959 17.6484 15.7617 17.1094 16.0723C15.8965 16.7754 14.4551 16.8164 13.1836 16.1953C12.709 15.9609 12.5449 15.8379 12.0938 15.3867C11.6484 14.9355 11.5137 14.7598 11.291 14.2969C10.8984 13.5059 10.834 13.2012 10.7871 11.9824C10.752 11.0918 10.7227 10.8867 10.623 10.6641C10.4121 10.2129 10.3125 9.56835 10.3125 8.66015C10.3125 7.68163 10.4004 7.24804 10.6934 6.68554C11.1094 5.89452 11.7188 5.37304 12.5684 5.08593L13.0371 4.92187H16.3652H19.6934L19.6758 7.42382ZM5.29102 12.041C5.80078 12.1758 6.19922 12.3984 6.5625 12.7676C7.13672 13.3418 7.42383 14.0273 7.48242 14.9473L7.51758 15.5156L7.07812 15.0937C6.3457 14.3848 5.23828 13.9277 4.06641 13.8457L3.58008 13.8105L3.09961 14.2734C2.8418 14.5254 2.58398 14.8125 2.53711 14.9062C2.37891 15.2109 2.5957 15.5859 2.93555 15.5859C3.08203 15.5859 3.19922 15.5039 3.54492 15.1758L3.9668 14.7598L4.3418 14.8184C4.88086 14.9062 5.30859 15.041 5.71289 15.2519C6.10547 15.4629 6.71484 16.0312 6.87891 16.3535C6.98438 16.5586 6.98438 16.5762 6.88477 16.8984C6.5918 17.8301 5.6543 18.5156 4.67578 18.5156C3.70312 18.5156 2.72461 17.8066 2.44922 16.9101C2.41992 16.8105 2.37305 16.5586 2.34375 16.3476C2.30273 16.0488 2.26172 15.9375 2.13867 15.8379C2.05664 15.7617 1.94531 15.7031 1.89258 15.7031C1.81055 15.7031 1.80469 15.6269 1.83398 15.1289C1.85156 14.8184 1.91016 14.4023 1.96289 14.209C2.37891 12.6152 3.84375 11.6601 5.29102 12.041ZM27.6562 13.043V14.1387L27.4219 14.6836C27.1934 15.2168 27.1875 15.2519 27.1875 15.8906C27.1875 16.8633 27 17.3613 26.4551 17.8652C25.2598 18.9668 23.4492 18.5918 22.7637 17.0976C22.582 16.6934 22.5 16.2422 22.5 15.5859C22.5 15.1523 22.4766 15.041 22.3242 14.7129C22.0547 14.1504 22.0078 13.8984 22.0898 13.5C22.2188 12.8555 22.6406 12.3457 23.2383 12.0996C23.584 11.959 23.6016 11.9531 25.623 11.9531H27.6562V13.043ZM13.2188 17.25C13.6465 17.4316 14.4609 17.5781 15.0234 17.5781C15.7207 17.5781 16.4707 17.4082 17.2441 17.0801C17.3379 17.0391 17.3496 17.0684 17.332 17.4082L17.3145 17.7773L16.1719 18.5566C15.5449 18.9902 15.0059 19.3301 14.9707 19.3125C14.9297 19.3008 14.3965 18.9434 13.7812 18.5156L12.6562 17.748V17.3906C12.6562 16.9863 12.6211 16.998 13.2188 17.25ZM2.44922 18.5801C2.7832 18.8965 2.81836 18.9492 2.80078 19.1367L2.7832 19.3418L2.36719 19.1367C2.13281 19.0195 1.83398 18.8262 1.69336 18.7031L1.44141 18.4805L1.54102 18.1289C1.59375 17.9355 1.64062 17.7129 1.64062 17.6367C1.64062 17.5254 1.69336 17.5781 1.86328 17.8652C1.98047 18.0703 2.24414 18.3926 2.44922 18.5801ZM7.76953 18.0293L7.875 18.4746L7.61133 18.7148C7.46484 18.8496 7.17773 19.0371 6.9668 19.1426L6.5918 19.3242L6.57422 19.1133C6.55664 18.9258 6.58594 18.873 6.84375 18.6387C7.16016 18.3457 7.45312 17.9766 7.56445 17.7363C7.60547 17.6484 7.64062 17.5781 7.64648 17.5781C7.6582 17.5781 7.71094 17.7832 7.76953 18.0293ZM14.1621 19.9453C14.2207 19.998 14.1211 20.1269 13.7168 20.5312L13.1953 21.0527L12.5449 20.0801C12.1875 19.541 11.8945 19.084 11.8945 19.0605C11.8945 19.0371 11.9766 18.9316 12.082 18.8262L12.2637 18.6387L13.1777 19.2598C13.6816 19.5996 14.127 19.9101 14.1621 19.9453ZM17.9648 18.8496L18.1465 19.0664L17.502 20.0391C17.1504 20.5723 16.8457 21.0176 16.834 21.0351C16.8223 21.0469 16.5762 20.8184 16.2832 20.5312L15.7559 19.998L16.7402 19.3184C17.2793 18.9434 17.7363 18.6387 17.7539 18.6387C17.7715 18.6328 17.8652 18.7324 17.9648 18.8496ZM4.6875 19.4238C4.99219 19.4238 5.32617 19.4004 5.42578 19.3769L5.61328 19.3301L5.63672 19.7578C5.66602 20.1738 5.66016 20.1914 5.48438 20.3789C4.98047 20.918 4.45898 20.9297 3.88477 20.4082C3.63867 20.1914 3.63281 20.1797 3.69141 19.9512C3.7207 19.8223 3.75 19.6289 3.75 19.5293C3.75 19.3476 3.75586 19.3418 3.94336 19.3828C4.04297 19.4062 4.38281 19.4238 4.6875 19.4238ZM24.873 19.4238C25.166 19.4238 25.4824 19.4062 25.5879 19.3828C25.7578 19.3418 25.7754 19.3535 25.8105 19.5234C25.8516 19.6875 25.8164 19.7402 25.3652 20.1914L24.873 20.6836L24.3926 20.2031C23.9766 19.793 23.9062 19.6934 23.9062 19.5234C23.9062 19.3301 23.9062 19.3301 24.1289 19.3769C24.2461 19.4004 24.5859 19.4238 24.873 19.4238Z" fill="white"/>
<path d="M12.5449 8.0625C11.4316 8.19727 11.25 8.40234 11.25 9.52148C11.25 9.89648 11.2734 10.248 11.3086 10.3066C11.3965 10.4824 11.6895 10.5762 11.8887 10.4941C12.123 10.3945 12.1875 10.207 12.1875 9.58594V9.04102L12.8496 8.9707C15.0293 8.75391 16.957 9.06445 17.7598 9.77344C17.877 9.87305 18.041 9.98437 18.1289 10.0195C18.457 10.1426 18.75 9.9375 18.75 9.57422C18.75 9.42187 18.6914 9.33398 18.4453 9.11133C18.0938 8.79492 17.25 8.37305 16.6992 8.23242C15.6738 7.96875 13.916 7.89844 12.5449 8.0625Z" fill="white"/>
<path d="M23.1973 13.4297C23.0157 13.582 22.9571 13.7637 23.0274 13.9687C23.1095 14.2266 23.2559 14.2793 24.0059 14.3262C24.7501 14.3672 25.4122 14.4844 25.8692 14.6426C26.3028 14.7949 26.3731 14.7949 26.5665 14.6426C26.7774 14.4727 26.7833 14.1211 26.5665 13.9512C26.2149 13.6758 25.1544 13.4473 23.9708 13.3887C23.461 13.3594 23.2677 13.3711 23.1973 13.4297Z" fill="white"/>
<path d="M27.5097 22.3183C27.2285 22.4355 27.2168 22.4941 27.1992 23.9883C27.1757 25.5234 27.1933 25.7285 27.3691 25.9043C27.5214 26.0566 27.8554 26.0508 28.0078 25.8984C28.1191 25.7871 28.125 25.7051 28.125 24.1758C28.125 22.7344 28.1132 22.5586 28.0254 22.4531C27.9023 22.3066 27.6738 22.248 27.5097 22.3183Z" fill="white"/>
<path d="M2.16797 22.8926C1.88086 23.0039 1.875 23.0215 1.875 24.4453C1.875 25.7051 1.88086 25.7871 1.99219 25.8984C2.14453 26.0508 2.47852 26.0566 2.63086 25.9043C2.80078 25.7344 2.82422 25.5117 2.80078 24.2695C2.7832 23.2383 2.77148 23.1387 2.66602 23.0332C2.53711 22.9043 2.30273 22.8398 2.16797 22.8926Z" fill="white"/>
<path d="M9.67383 23.2676C9.39258 23.3789 9.38086 23.4551 9.375 24.6445C9.375 25.7344 9.375 25.7637 9.50977 25.8867C9.70898 26.0742 10.0312 26.0625 10.1895 25.8633C10.3066 25.7168 10.3125 25.6289 10.3125 24.6328C10.3125 23.6016 10.3066 23.5547 10.1836 23.4141C10.0195 23.2383 9.86133 23.1914 9.67383 23.2676Z" fill="white"/>
<path d="M19.9804 23.2793C19.7109 23.4141 19.6816 23.5605 19.6992 24.7031C19.7167 25.6582 19.7285 25.7812 19.8281 25.8926C19.9804 26.0566 20.3437 26.0625 20.5078 25.8984C20.6191 25.7871 20.625 25.7051 20.625 24.6387C20.625 23.5723 20.6191 23.4902 20.5078 23.3789C20.4433 23.3144 20.3671 23.2617 20.3378 23.2617C20.3085 23.2617 20.25 23.25 20.2031 23.2324C20.1621 23.2148 20.0625 23.2383 19.9804 23.2793Z" fill="white"/>
</g>
<defs>
<clipPath id="clip0_66_1350">
<rect width="30" height="30" fill="white"/>
</clipPath>
</defs>
</svg>
