<svg width="30" height="30" viewBox="0 0 30 30" fill="none" xmlns="http://www.w3.org/2000/svg">
<path d="M14.7598 1.875C13.5879 1.98047 12.2988 2.49023 11.6367 3.11133C11.4023 3.32812 11.1504 3.49805 10.9219 3.5918C9.86133 4.01953 9.11719 4.93359 8.86523 6.11719C8.68945 6.94922 8.90625 8.02148 9.39844 8.75391L9.65039 9.12891L9.42773 9.19336C9.08203 9.29883 8.58398 9.79102 8.44336 10.1719C8.0332 11.2559 8.63672 12.3164 9.79102 12.5625C9.92578 12.5918 9.96094 12.6445 10.0254 12.9023C10.1895 13.6055 10.5938 14.3672 11.1094 14.9824L11.3672 15.2812V16.1309V16.9805L10.2422 17.666L9.11133 18.3516L7.67578 18.6621C6.88477 18.832 6.08789 19.0371 5.90625 19.1191C4.875 19.5762 4.03125 20.4609 3.75 21.375C3.65039 21.6914 3.63281 21.9199 3.63281 22.7871C3.63281 23.8008 3.63867 23.8301 3.76758 23.9531C4.03711 24.2109 4.51758 24.0703 4.59375 23.7188C4.61133 23.6426 4.63477 23.1621 4.64063 22.6465L4.6582 21.709L4.85742 21.3398C5.12109 20.8594 5.64844 20.3672 6.1875 20.1152C6.76758 19.8398 9.07031 19.3359 9.16406 19.459C9.73242 20.2148 11.9297 22.8691 12.0176 22.916C12.1992 23.0098 12.457 22.9395 12.7852 22.6992C12.9492 22.5879 13.084 22.5 13.0898 22.5117C13.1016 22.5234 13.2598 22.8047 13.4414 23.1445L13.7754 23.7598L13.5 24.3457C13.3477 24.668 12.9785 25.4414 12.6797 26.0566L12.1348 27.1875H8.38477H4.62891V26.3086C4.62891 25.1719 4.56445 25.0195 4.07813 25.0195C3.95508 25.0195 3.84375 25.0664 3.76172 25.1543C3.63867 25.2832 3.63281 25.3359 3.63281 26.5781C3.63281 27.7969 3.63867 27.873 3.75 27.9961L3.87305 28.125H12.8262C21.5273 28.125 21.7852 28.1191 21.9199 28.0137C22.1133 27.8555 22.1133 27.457 21.9199 27.2988C21.791 27.1934 21.6621 27.1875 19.8223 27.1875H17.8652L17.3203 26.0566C17.0215 25.4414 16.6523 24.668 16.5 24.3457L16.2246 23.7598L16.5586 23.1445C16.7402 22.8047 16.8984 22.5176 16.9102 22.5059C16.916 22.5 17.0742 22.5938 17.2617 22.7285C17.6016 22.9688 17.7891 23.0156 17.9883 22.9102C18.0762 22.8633 20.3027 20.168 20.8359 19.459C20.9297 19.3359 23.2324 19.8398 23.8125 20.1152C24.3867 20.3848 24.9023 20.877 25.1484 21.375L25.3418 21.7676L25.3594 24.4746L25.377 27.1875H24.293H23.209L23.0918 27.3398C22.9336 27.5391 22.9336 27.7734 23.0918 27.9727L23.209 28.125H24.6621C26.1035 28.125 26.1152 28.125 26.2383 27.9902L26.3672 27.8555V24.8086C26.3672 21.5625 26.3613 21.4805 26.0742 20.918C25.8691 20.5137 25.4238 19.9922 25.0371 19.6934C24.3574 19.166 23.959 19.0137 22.3418 18.6621L20.8887 18.3457L19.7637 17.666L18.6328 16.9805V16.1602V15.3398L18.9141 15.0117C19.4883 14.3438 19.8223 13.7344 20.0156 12.9902L20.1211 12.6035L20.4023 12.5391C21.1875 12.375 21.7207 11.7715 21.7852 10.9805C21.8438 10.2422 21.4453 9.55664 20.7949 9.25781C20.6191 9.18164 20.4668 9.11133 20.4551 9.09961C20.4434 9.09375 20.5605 8.79492 20.7129 8.43164C21.2461 7.17188 21.2695 6.22852 20.8008 5.17383C20.5605 4.64648 20.2441 4.53516 19.916 4.85742C19.7051 5.07422 19.7051 5.15625 19.916 5.69531C20.127 6.23438 20.1797 6.63867 20.0977 7.10742C20.0273 7.46484 19.7051 8.32031 19.6348 8.32031C19.6113 8.32031 19.3711 7.94531 19.1016 7.48242C18.5156 6.49805 18.416 6.38672 18.1465 6.38672C17.9941 6.38672 17.8477 6.46875 17.4434 6.79688C16.5996 7.4707 15.7793 7.79297 14.8828 7.79297C14.0273 7.79297 13.3359 7.5 12.6035 6.82617C12.1816 6.43359 12.0996 6.38672 11.9004 6.38672C11.6191 6.38672 11.543 6.47461 10.8398 7.51758C10.5645 7.92188 10.3184 8.25 10.2891 8.24414C10.1777 8.20898 9.9082 7.57617 9.83789 7.18945C9.60352 5.87695 10.541 4.58203 11.918 4.33008C12.8262 4.16016 13.752 4.60547 14.5664 5.58984C14.7773 5.84766 14.8301 5.88281 15.0234 5.88281C15.2871 5.88281 15.5273 5.6543 15.5273 5.4082C15.5273 4.85742 14.2441 3.72656 13.3125 3.45117C13.0664 3.38086 13.0605 3.375 13.1953 3.29883C13.2715 3.25781 13.5293 3.16406 13.7695 3.08203C15.334 2.57812 17.0625 2.85352 18.4629 3.83789C18.9551 4.18359 19.1953 4.24219 19.4355 4.07227C19.6113 3.94922 19.6699 3.61523 19.5469 3.42773C19.2891 3.03516 18.0703 2.34961 17.1445 2.08594C16.7344 1.96289 15.4453 1.78711 15.293 1.82227C15.2754 1.82812 15.0352 1.85156 14.7598 1.875ZM12.1348 7.77539C12.1816 7.82812 12.4043 7.99219 12.6328 8.14453C14.0332 9.05859 16.0137 8.99414 17.5371 7.98633C17.7715 7.82812 17.9766 7.69922 17.9941 7.6875C18.0117 7.68164 18.2988 8.12109 18.6211 8.66602L19.2188 9.65625V10.8105C19.2188 12.1582 19.1426 12.627 18.8145 13.3301C18.0996 14.8535 16.6816 15.7617 15.0293 15.7617C13.043 15.7617 11.3203 14.3496 10.9277 12.4102C10.8633 12.082 10.8398 11.5957 10.8398 10.6348V9.30469L11.4023 8.49023C11.707 8.04492 11.9824 7.67578 12.0059 7.67578C12.0352 7.67578 12.0938 7.72266 12.1348 7.77539ZM9.84375 10.8398C9.84375 11.2266 9.82617 11.543 9.79688 11.543C9.70313 11.543 9.48633 11.3496 9.4043 11.1914C9.35742 11.0977 9.31641 10.9102 9.31641 10.7754C9.31641 10.582 9.35156 10.5 9.51563 10.3359C9.62695 10.2246 9.74414 10.1367 9.7793 10.1367C9.82031 10.1367 9.84375 10.3652 9.84375 10.8398ZM20.5313 10.2832C20.8066 10.541 20.8652 10.834 20.707 11.168C20.625 11.3379 20.373 11.543 20.2441 11.543C20.2266 11.543 20.2148 11.2266 20.2148 10.8398C20.2148 10.0664 20.2441 10.0137 20.5313 10.2832ZM13.6992 16.5879C13.9453 16.6523 14.4316 16.7227 14.7715 16.7402C15.7207 16.793 16.459 16.6289 17.5664 16.1309C17.6191 16.1074 17.6367 16.2188 17.6367 16.5938V17.0801L16.3184 18.3984L15 19.7168L13.6816 18.3984L12.3633 17.0801V16.5703V16.0605L12.8086 16.2656C13.0488 16.377 13.4531 16.5234 13.6992 16.5879ZM13.0254 19.1484L14.2383 20.3613L13.2891 21.0645L12.334 21.7734L11.2031 20.373C10.582 19.5996 10.084 18.9551 10.1016 18.9434C10.1484 18.8965 11.7422 17.9355 11.7773 17.9297C11.7949 17.9297 12.3574 18.4746 13.0254 19.1484ZM19.0371 18.4043C19.4766 18.668 19.8574 18.9023 19.8809 18.9258C19.9102 18.9492 19.4238 19.5996 18.7969 20.373L17.666 21.7676L16.7109 21.0645L15.7617 20.3613L16.9746 19.1484C17.6426 18.4746 18.1992 17.9297 18.2109 17.9297C18.2227 17.9297 18.5918 18.1465 19.0371 18.4043ZM15.5625 21.4805C15.8496 21.6914 16.0781 21.8848 16.0723 21.9141C16.0664 21.9434 15.8965 22.2539 15.7031 22.6113L15.3457 23.2617H15H14.6543L14.2969 22.6113C14.1035 22.2539 13.9336 21.9434 13.9277 21.9141C13.916 21.8613 14.918 21.0938 15 21.0938C15.0234 21.0938 15.2813 21.2637 15.5625 21.4805ZM15.9902 25.623C16.3477 26.3555 16.6523 27.0117 16.6699 27.0703C16.7051 27.1875 16.6641 27.1875 15.0059 27.1875C14.0684 27.1875 13.3008 27.1699 13.3008 27.1465C13.3008 27.123 13.6055 26.4668 13.9863 25.6816L14.666 24.252L15.0059 24.2695L15.3516 24.2871L15.9902 25.623Z" fill="white"/>
</svg>
