<svg width="25" height="30" viewBox="0 0 25 30" fill="none" xmlns="http://www.w3.org/2000/svg">
<g clip-path="url(#clip0_64_790)">
<path d="M10.4355 0.117188C9.94922 0.257812 9.54492 0.445312 9.08203 0.761719C8.78906 0.960938 8.71289 0.984375 8.26172 1.01953C7.26562 1.08984 6.54492 1.41797 5.82422 2.13867C5.44336 2.51367 5.30273 2.70117 5.10937 3.10547C4.81055 3.73242 4.72852 4.14258 4.74023 4.94531C4.75195 6.08789 4.98633 7.51172 5.41992 9.07031C5.66602 9.97266 5.68359 10.0723 5.68359 10.7695C5.68359 12.6973 6.33984 14.4082 7.59961 15.7617L8.00977 16.2012L7.98047 16.5938C7.95703 16.957 7.94531 16.9863 7.85156 16.9336C7.69922 16.8516 7.36523 16.8633 7.25391 16.9453C7.20703 16.9863 7.05469 17.1855 6.91992 17.3848C6.72656 17.6777 6.64453 17.7539 6.52734 17.7539C6.35742 17.7539 3.45117 18.668 3.03516 18.8555C2.08008 19.2773 1.25977 20.0918 0.732422 21.1523C0.457031 21.7031 0.322266 22.084 0.158203 22.793C0.0410156 23.3203 0.0351562 23.4902 0.0292969 25.9277C0.0292969 28.4707 0.0292969 28.5117 0.164062 28.834C0.322266 29.2266 0.714844 29.6426 1.10156 29.8359L1.37695 29.9707H12.2461H23.1152L23.3906 29.8359C23.7773 29.6426 24.1699 29.2266 24.3281 28.834C24.4629 28.5117 24.4629 28.4707 24.4629 25.9277C24.457 23.4902 24.4512 23.3203 24.334 22.793C24.1582 22.0371 24.0117 21.6328 23.707 21.0586C23.1445 19.998 22.3945 19.2715 21.457 18.8555C21.0879 18.6914 18.1523 17.7539 17.959 17.7422C17.8359 17.7305 17.748 17.6484 17.5664 17.373C17.4316 17.1797 17.2852 16.9863 17.2383 16.9512C17.127 16.8633 16.793 16.8516 16.6406 16.9336C16.5469 16.9863 16.5352 16.957 16.5117 16.5938L16.4824 16.2012L16.9219 15.7324C17.8477 14.748 18.4746 13.4766 18.7207 12.0996C18.7734 11.7949 18.8262 11.0449 18.8437 10.3418C18.8789 9.20508 18.8906 9.07031 19.0488 8.55469C19.7578 6.2168 19.7344 4.00195 18.9844 2.49023C18.5859 1.6875 17.9297 0.984375 17.2617 0.65625C17.0156 0.527344 16.9687 0.527344 16.5352 0.585938C15.8965 0.673828 15.123 0.591797 13.7109 0.287109C12.7383 0.0820312 12.4395 0.0410156 11.7187 0.0234375C10.998 0.00585938 10.8047 0.0175781 10.4355 0.117188ZM13.1543 1.20703C14.8652 1.56445 15.1113 1.59375 16.0254 1.60547C17.0156 1.61133 16.9746 1.59961 17.5078 2.12695C17.8887 2.49609 18.2812 3.26953 18.4277 3.92578C18.5625 4.5293 18.6035 5.61328 18.5215 6.2168C18.4336 6.86133 18.2754 7.63477 18.2227 7.69336C18.1992 7.72266 17.9824 7.39453 17.748 6.9668C17.2266 6.0293 17.1973 6.01172 16.4648 6.11133C15.6562 6.2168 12.4219 6.19336 11.5137 6.07031C10.3594 5.92383 9.38086 5.70117 8.41992 5.38477C7.59375 5.11523 7.54102 5.10352 7.35352 5.17969C7.21875 5.23828 7.13672 5.32031 7.10742 5.43164C7.00195 5.8418 7.16602 6.02344 7.83984 6.26367C9.86719 6.97266 11.9941 7.25977 14.7656 7.18359C15.5859 7.16016 16.3535 7.13086 16.4648 7.11328L16.6699 7.08398L17.2617 8.15625L17.8535 9.22852L17.8359 10.3711C17.8301 11.2617 17.7949 11.6367 17.7012 12.0879C17.3027 13.9629 16.1719 15.4688 14.5664 16.2598C13.6406 16.7109 13.3359 16.7812 12.2754 16.7871C11.25 16.7871 10.8809 16.7109 10.0488 16.3184C8.39648 15.5449 7.27734 14.0859 6.78516 12.0703C6.66797 11.5781 6.69141 9.75586 6.82031 9.50391C6.87305 9.39844 6.89062 9.31641 6.86133 9.31641C6.69727 9.31641 7.20117 8.26758 7.69922 7.56445C8.06836 7.04297 8.05664 6.71484 7.65234 6.5625C7.40039 6.46875 7.14844 6.61523 6.83203 7.03711C6.67383 7.24219 6.48633 7.53516 6.41016 7.6875C6.33398 7.83398 6.24609 7.97461 6.2168 7.99219C6.16406 8.02734 5.90039 6.75 5.80078 5.95898C5.70703 5.23828 5.72461 4.2832 5.83594 3.96094C6.13477 3.08203 6.79102 2.4375 7.6875 2.13281C8.08594 1.99805 8.94141 1.99805 9.31055 2.13281C9.68555 2.26758 9.9375 2.25586 10.1074 2.08008C10.2773 1.91602 10.2949 1.66992 10.1602 1.47656C10.1074 1.40039 10.0781 1.33594 10.084 1.32422C10.1543 1.2832 10.6055 1.10742 10.7812 1.06055C11.25 0.9375 12.1172 0.990234 13.1543 1.20703ZM9.39844 17.1328C10.2129 17.584 11.168 17.8125 12.2461 17.8125C13.3184 17.8125 14.3496 17.5664 15.1523 17.1094C15.3281 17.0156 15.4805 16.9336 15.498 16.9336C15.5156 16.9336 15.5273 17.0859 15.5273 17.2676L15.5215 17.6074L13.8867 18.5859L12.2461 19.5645L10.6055 18.5859L8.9707 17.6074L8.96484 17.2676C8.96484 17.0859 8.98242 16.9336 9.00586 16.9336C9.02344 16.9336 9.20508 17.0215 9.39844 17.1328ZM9.52734 19.1133C11.2852 20.1738 11.3027 20.1855 11.1445 20.2676C10.8926 20.3965 10.5996 20.6953 10.4824 20.9473C10.4004 21.123 10.3711 21.3223 10.3711 21.7324C10.3711 22.2715 10.3652 22.2949 10.1543 22.6289C10.0312 22.8105 9.89648 22.9805 9.84961 22.998C9.79687 23.0215 9.49219 22.7637 9.02344 22.3125L8.28516 21.5918L7.74023 20.2031L7.18945 18.8145L7.44141 18.4277C7.57617 18.2168 7.69922 18.0469 7.7168 18.0469C7.73437 18.0469 8.54297 18.5273 9.52734 19.1133ZM17.0508 18.4277L17.3027 18.8145L16.752 20.2031L16.207 21.5918L15.4687 22.3125C15 22.7637 14.6953 23.0215 14.6426 22.998C14.5957 22.9805 14.4609 22.8105 14.3437 22.6289C14.127 22.2949 14.1211 22.2715 14.1211 21.7324C14.1211 21.3223 14.0918 21.123 14.0098 20.9473C13.8926 20.6895 13.5996 20.3965 13.3359 20.2617L13.1719 20.1738L14.9473 19.1133C15.9258 18.5273 16.7461 18.0527 16.7637 18.0469C16.7871 18.0469 16.916 18.2168 17.0508 18.4277ZM8.08594 23.877C9.1582 26.6133 10.0488 28.9043 10.0664 28.9629C10.0898 29.0566 10.0195 29.0625 9.19336 29.0625L8.29101 29.0566L7.23633 27.6445C6.65625 26.8711 6.11719 26.1445 6.04102 26.0391L5.90039 25.8398L6.49219 25.2305C7.04297 24.668 7.08984 24.5977 7.08984 24.3926C7.08984 24.2695 7.05469 24.1289 7.01367 24.0762C6.97266 24.0293 6.56836 23.707 6.11133 23.3613C5.64844 23.0156 5.27344 22.7109 5.27344 22.6875C5.2793 22.4297 5.68359 19.0781 5.71289 19.0488C5.74805 19.0137 6.11133 18.873 6.12891 18.8906C6.13477 18.8906 7.01367 21.1348 8.08594 23.877ZM18.7676 19.043C18.8027 19.0723 19.207 22.3711 19.2187 22.6875C19.2187 22.7109 18.8437 23.0156 18.3867 23.3613C17.9238 23.707 17.5195 24.0293 17.4785 24.0762C17.4375 24.1289 17.4023 24.2695 17.4023 24.3926C17.4023 24.5977 17.4492 24.668 18 25.2305L18.5918 25.8398L18.4512 26.0391C18.375 26.1445 17.8359 26.8711 17.2559 27.6445L16.2012 29.0566L15.3105 29.0625C14.8184 29.0625 14.4141 29.0449 14.4141 29.0156C14.4141 28.9922 15.2988 26.7012 16.3887 23.9297L18.3633 18.8789L18.5391 18.9434C18.6387 18.9727 18.7441 19.0195 18.7676 19.043ZM4.62891 19.4355C4.62891 19.4648 4.54687 20.209 4.44727 21.0996C4.24805 22.8984 4.25391 23.0391 4.57617 23.4023C4.66992 23.5137 4.98633 23.7832 5.27344 23.9941C5.56641 24.2109 5.80078 24.4043 5.80078 24.4277C5.80078 24.4512 5.67773 24.5859 5.53125 24.7266C5.21484 25.0371 5.00977 25.377 4.95703 25.6758C4.88086 26.1094 4.99805 26.332 6.03516 27.7148L7.02539 29.0332L4.64062 29.0508C3.32812 29.0625 2.12109 29.0508 1.95117 29.0332C1.58789 28.9922 1.3125 28.8164 1.14844 28.5352C1.03125 28.3359 1.02539 28.248 1.02539 25.8691C1.02539 23.6836 1.03711 23.3555 1.13672 22.9453C1.34766 22.0312 1.75781 21.2402 2.36133 20.5898C2.76562 20.1504 3.25195 19.8457 3.94922 19.5938C4.5 19.3945 4.62891 19.3652 4.62891 19.4355ZM20.4902 19.5762C21.7207 20.0039 22.5293 20.7773 23.0625 22.0371C23.4434 22.9453 23.4668 23.1387 23.4668 25.8691C23.4668 28.248 23.4609 28.3359 23.3437 28.5352C23.1797 28.8164 22.9043 28.9922 22.541 29.0332C22.3711 29.0508 21.1641 29.0625 19.8516 29.0508L17.4668 29.0332L18.457 27.7148C19.4941 26.332 19.6113 26.1094 19.5352 25.6758C19.4824 25.377 19.2773 25.0371 18.9609 24.7266C18.8145 24.5859 18.6914 24.4512 18.6914 24.4277C18.6914 24.4043 18.9258 24.2109 19.2187 23.9941C19.5059 23.7832 19.8223 23.5137 19.916 23.4023C20.2383 23.0391 20.2441 22.8984 20.0449 21.0996C19.9453 20.209 19.8633 19.4648 19.8633 19.4355C19.8633 19.3652 19.9453 19.3828 20.4902 19.5762ZM12.832 21.1465C13.0547 21.2051 13.1836 21.5215 13.1836 22.0078C13.1836 22.4824 13.1016 22.7695 12.9492 22.8516C12.8086 22.9277 11.6836 22.9277 11.543 22.8516C11.3906 22.7695 11.3086 22.4824 11.3086 22.0078C11.3086 21.5215 11.4375 21.2051 11.6602 21.1465C11.7422 21.123 12.0059 21.1055 12.2461 21.1055C12.4863 21.1055 12.75 21.123 12.832 21.1465ZM10.4883 24.9785C10.3359 25.7461 10.2012 26.3789 10.1895 26.3965C10.1777 26.4082 9.9375 25.8457 9.66211 25.1426L9.16406 23.8652L9.43359 23.9531C9.81445 24.0762 10.1895 24.0117 10.5059 23.7656C10.6406 23.6602 10.7578 23.5723 10.7637 23.5781C10.7637 23.584 10.6465 24.2109 10.4883 24.9785ZM14.3379 23.959C14.6367 24.0469 14.8242 24.041 15.0996 23.9414L15.334 23.8594L14.8301 25.1426C14.4785 26.0332 14.3145 26.3965 14.2852 26.3203C14.2617 26.2676 14.1328 25.6699 14.0039 24.9902C13.8691 24.3105 13.7461 23.707 13.7285 23.6426C13.6992 23.5488 13.7344 23.5664 13.9043 23.7129C14.0215 23.8184 14.2148 23.9297 14.3379 23.959ZM12.8262 24.2109C12.8613 24.3809 13.0547 25.3535 13.2598 26.3672L13.6289 28.2129L13.459 28.6406L13.2832 29.0625L12.2344 29.0508L11.1797 29.0332L11.0215 28.623L10.8633 28.2129L11.2324 26.3672C11.4375 25.3535 11.6309 24.3809 11.666 24.2109L11.7246 23.9062H12.2461H12.7676L12.8262 24.2109Z" fill="white"/>
</g>
<defs>
<clipPath id="clip0_64_790">
<rect width="24.4922" height="30" fill="white"/>
</clipPath>
</defs>
</svg>
