<svg width="30" height="30" viewBox="0 0 30 30" fill="none" xmlns="http://www.w3.org/2000/svg">
<g clip-path="url(#clip0_64_742)">
<path d="M9.70898 2.05078C9.10547 2.15625 8.56641 2.57812 8.30273 3.15234C8.18555 3.4043 8.17383 3.54492 8.15625 4.75781L8.13281 6.08789L4.69922 6.10547C1.3418 6.12305 1.25391 6.12891 0.990234 6.24609C0.615234 6.42188 0.322266 6.69727 0.152344 7.04297L0 7.34766V11.0918V14.8301L0.146484 15.1465C0.322266 15.5098 0.591797 15.7676 1.03125 15.9844L1.34766 16.1367L1.35938 21.3867L1.37695 26.6309L1.51758 26.918C1.71094 27.3047 2.05078 27.6328 2.45508 27.8262L2.7832 27.9785H15H27.2168L27.5449 27.8262C27.9492 27.6328 28.2891 27.3047 28.4824 26.918L28.623 26.6309L28.6406 21.3867L28.6523 16.1426L28.9922 15.9668C29.1738 15.873 29.4375 15.6797 29.5723 15.5391C30.0176 15.0879 30.0059 15.2051 29.9883 10.9805L29.9707 7.23633L29.8125 6.9668C29.6191 6.63867 29.3672 6.41602 29.0039 6.24609C28.7461 6.12891 28.6465 6.12305 25.3008 6.10547L21.8672 6.08789L21.8438 4.75781C21.8262 3.43945 21.8262 3.42773 21.6621 3.09375C21.4629 2.69531 21.0234 2.2793 20.6367 2.13281C20.3789 2.02734 20.0449 2.02148 15.1758 2.01562C12.3223 2.00977 9.86719 2.02734 9.70898 2.05078ZM20.2793 3.60938C20.4141 3.75586 20.4199 3.78516 20.4375 4.92773L20.4551 6.09375H15H9.54492L9.5625 4.92773C9.58008 3.78516 9.58594 3.75586 9.7207 3.60938L9.86133 3.45703H15H20.1387L20.2793 3.60938ZM28.418 7.57617L28.5645 7.65234V11.1035V14.5605L26.1621 15.7734L23.7598 16.9863H22.8164L21.873 16.9922L21.8438 16.4062C21.8203 15.9023 21.791 15.7734 21.627 15.4453C21.4102 15.0059 21.0938 14.6953 20.6309 14.4785C20.3496 14.3496 20.2266 14.3262 19.7461 14.3262C19.2246 14.3262 19.166 14.3438 18.8203 14.5254C18.0879 14.9238 17.7539 15.4922 17.707 16.418L17.6777 16.9922H15H12.3223L12.293 16.418C12.2461 15.4746 11.8945 14.8887 11.1445 14.5195C10.793 14.3438 10.7051 14.3262 10.2246 14.3262C9.7793 14.3262 9.65039 14.3496 9.36914 14.4785C8.90625 14.6953 8.58984 15.0059 8.37305 15.4453C8.20898 15.7734 8.17969 15.9023 8.15625 16.4062L8.12695 16.9922L7.18359 16.9863H6.24023L3.83789 15.7734L1.43555 14.5605V11.1035V7.65234L1.58203 7.57617C1.69922 7.51758 4.41797 7.5 15 7.5C25.582 7.5 28.3008 7.51758 28.418 7.57617ZM10.5352 15.8203C10.8691 16.0254 10.8984 16.1836 10.8984 17.7246C10.8984 19.1953 10.8691 19.3652 10.6055 19.5996C10.5176 19.6758 10.3945 19.7168 10.2246 19.7168C9.91992 19.7168 9.69727 19.541 9.60938 19.2246C9.52734 18.9199 9.53906 16.4297 9.62695 16.1719C9.70312 15.9551 10.0195 15.7031 10.2188 15.7031C10.2891 15.7031 10.4297 15.7559 10.5352 15.8203ZM20.1035 15.8379C20.2148 15.9141 20.332 16.0605 20.373 16.1719C20.4609 16.4297 20.4727 18.9199 20.3906 19.2246C20.3027 19.541 20.0801 19.7168 19.7754 19.7168C19.4707 19.7168 19.248 19.541 19.1543 19.2246C19.1191 19.0957 19.1016 18.4746 19.1133 17.5957C19.1309 16.2656 19.1367 16.1719 19.2539 16.0137C19.5 15.6855 19.7871 15.627 20.1035 15.8379ZM4.37109 17.6484L5.92969 18.4277L7.03125 18.4512L8.12695 18.4688L8.15625 19.0371C8.20312 19.957 8.53711 20.5254 9.26953 20.9238C9.62109 21.1113 9.66797 21.123 10.2246 21.123C10.7168 21.123 10.8516 21.0996 11.0859 20.9883C11.5195 20.7715 11.8711 20.4258 12.082 19.998C12.2461 19.6582 12.2754 19.541 12.293 19.0312L12.3164 18.457H15H17.6836L17.707 19.0254C17.7246 19.4883 17.7598 19.6641 17.8828 19.9336C18.0879 20.373 18.4336 20.7422 18.8496 20.9531C19.1602 21.1055 19.2422 21.123 19.7754 21.123C20.332 21.123 20.3789 21.1113 20.7305 20.9238C21.4629 20.5254 21.7969 19.957 21.8438 19.0371L21.873 18.4688L22.9688 18.4512L24.0703 18.4277L25.6289 17.6484C26.4902 17.2266 27.2051 16.875 27.2168 16.875C27.2344 16.875 27.2461 18.9844 27.2461 21.5625V26.2559L27.0996 26.3965L26.959 26.543H15H3.04102L2.90039 26.3965L2.75391 26.2559V21.5625C2.75391 18.9844 2.76562 16.875 2.7832 16.875C2.79492 16.875 3.50977 17.2266 4.37109 17.6484Z" fill="white"/>
</g>
<defs>
<clipPath id="clip0_64_742">
<rect width="30" height="30" fill="white"/>
</clipPath>
</defs>
</svg>
