<svg width="143" height="102" viewBox="0 0 143 102" fill="none" xmlns="http://www.w3.org/2000/svg">
<mask id="mask0_66_1313" style="mask-type:alpha" maskUnits="userSpaceOnUse" x="0" y="0" width="143" height="102">
<rect width="143" height="102" rx="8" fill="#EDF3F9"/>
</mask>
<g mask="url(#mask0_66_1313)">
<path fill-rule="evenodd" clip-rule="evenodd" d="M122.492 64.2678H143.108L142.916 70.8054C142.916 107.491 119.225 133.323 87.7467 134.969V115.13C87.7467 114.255 88.4001 113.538 89.2514 113.447C112.367 110.863 122.492 89.5612 122.492 70.6585V64.2678ZM142.91 22V41.6372C142.91 42.5738 142.167 43.339 141.244 43.339H87.465V85.9129H66.5732V22H142.91ZM5.66055 22H59.7512V43.3818C35.9401 45.4264 28.7583 66.7286 28.7583 85.9129H9.31135C8.38217 85.9129 7.62083 85.1293 7.63282 84.1805C7.92057 67.9406 12.2488 53.9595 19.7842 43.3818H4V23.7017C4 22.759 4.74335 22 5.66055 22ZM45.5916 113.526H66.5912V134.969H45.5916V113.526Z" fill="#1F52DE" fill-opacity="0.1"/>
</g>
</svg>
