<svg width="120" height="35" viewBox="0 0 120 35" fill="none" xmlns="http://www.w3.org/2000/svg">
<g clip-path="url(#clip0_61_415)">
<path fill-rule="evenodd" clip-rule="evenodd" d="M58.2714 28.321C59.8556 28.4349 61.1342 28.9486 61.9867 30.2337C62.2043 30.5345 62.4074 31.2741 62.4074 31.6645C62.4056 32.9347 61.6226 33.9546 60.1976 34.3039C59.8098 34.3991 58.5495 34.4421 58.1489 34.4458C56.9379 34.457 55.7287 34.4552 54.4867 34.4533V34.4552C54.4867 34.4552 54.0915 34.4533 53.6287 34.4533C53.4495 34.4533 53.2738 34.4533 53.0928 34.4533L53.0891 23.4346H60.5178V24.6338H54.4665L54.4738 28.2369L58.2714 28.321ZM60.7299 31.4292C60.7299 31.2069 60.5141 29.5744 58.6117 29.6528H54.4775V29.6547L54.4848 33.2167H59.1367C60.0165 33.2167 60.7299 32.492 60.7299 31.5973V31.4292ZM98.4476 6.82901V17.575H97.0556V9.03126C97.0537 9.03313 97.0537 9.03686 97.0537 9.03686C97.0537 9.03686 90.5598 17.5489 90.3659 17.575H88.9739V6.82901C88.9739 6.65343 89.1111 6.51334 89.2812 6.51147C89.6415 6.50587 90.0056 6.49653 90.3678 6.51147L90.3659 8.60351V15.4606L97.0537 6.51147L97.3171 6.504V6.50773C97.5934 6.504 97.8678 6.50773 98.1421 6.51147C98.3123 6.51334 98.4476 6.6553 98.4476 6.82901ZM108.3 23.4421C108.47 23.4458 108.606 23.5859 108.606 23.7596V34.5075H107.212V25.9637C107.212 25.9656 107.21 25.9693 107.21 25.9693C107.21 25.9693 100.718 34.4813 100.524 34.5075H99.13V23.7596C99.13 23.5859 99.269 23.4458 99.4391 23.4421C99.7995 23.4383 100.163 23.4271 100.526 23.4421L100.524 25.536V32.393L107.21 23.4421L107.475 23.4346V23.4383C107.751 23.4346 108.026 23.4383 108.3 23.4421ZM83.969 28.166V23.4421H85.4434V34.444H84.0001V29.608H77.5921V34.4552H76.1726V23.7652C76.1726 23.5934 76.308 23.4551 76.4763 23.4551H77.5464V28.166H83.969ZM117.254 23.5728C119.157 23.7801 120.148 25.351 119.982 27.4412C119.846 29.1447 118.425 30.5214 116.702 30.5774C115.685 30.611 113.53 30.583 112.387 30.583V32.0923H110.974V23.5355C112.734 23.5355 115.579 23.3898 117.254 23.5728ZM117.018 24.8598C115.904 24.6618 113.614 24.7066 112.429 24.6412V29.2774C113.523 29.2774 115.698 29.339 116.729 29.2587C117.778 29.1765 118.48 28.3285 118.553 27.2488C118.643 25.9189 118.185 25.0671 117.018 24.8598ZM51.5068 6.51147H62.1714V7.80032H57.6092V17.5246H56.1568V7.84141H51.1958V6.82901C51.1958 6.65343 51.3367 6.51147 51.5068 6.51147ZM97.0336 23.5485C97.0098 23.5691 93.1958 27.0546 91.6171 28.6983C93.6019 30.7063 97.3867 34.2665 97.3867 34.2665L95.7147 34.4197C95.6287 34.4271 95.5446 34.3991 95.4824 34.3394L90.5708 29.7537L89.6141 30.626C89.6141 30.9883 89.6159 31.601 89.6141 31.743C89.6013 32.6284 89.6141 33.5119 89.6141 34.4327H88.2092V23.4421H89.3104C89.4769 23.4421 89.6141 23.5803 89.6141 23.7521V28.7207L95.4074 23.4421L97.0336 23.5485ZM91.1836 3.57327H92.1074C92.1074 4.43064 92.8446 4.7351 93.4757 4.7351C94.1068 4.7351 94.844 4.43064 94.844 3.57327H95.7678C95.7678 4.81355 94.8257 5.67839 93.4757 5.67839C92.1275 5.67839 91.1836 4.81355 91.1836 3.57327ZM70.9921 11.9993C72.0696 12.343 73.5549 13.1238 73.4671 14.8722C73.3391 16.1386 72.6806 17.1641 71.2574 17.5134C70.8678 17.6086 69.6074 17.6516 69.2068 17.6553C67.5495 17.6703 65.8903 17.6628 64.1525 17.6628V6.5096C64.8568 6.5096 65.5519 6.50587 66.247 6.51147C67.3098 6.52268 68.3763 6.49279 69.4336 6.56751C70.9025 6.67024 71.8373 7.43234 72.1245 8.639C72.4373 9.96147 71.958 11.0336 70.6519 11.8817C70.7452 11.9172 70.9062 11.9713 70.9921 11.9993ZM65.6507 11.4577C66.8086 11.4577 67.8897 11.5006 68.969 11.4464C69.8799 11.3997 70.5513 10.7217 70.6318 9.82511C70.7196 8.85194 70.2385 7.98337 69.3275 7.88811C68.1184 7.76483 66.8891 7.85822 65.6507 7.85822V11.4577ZM71.7879 14.577C71.7879 13.8523 71.3873 13.3349 70.7891 13.0827C70.5531 12.9819 69.9751 12.9763 69.9751 12.9763C69.7025 12.9464 67.9226 12.9408 65.6507 12.9763V16.4244H70.1946C71.0763 16.4244 71.7879 15.6754 71.7879 14.7508V14.577ZM69.6495 23.4327L69.6568 23.4495L74.5354 34.4832L73.286 34.4682C73.1671 34.4664 73.061 34.3935 73.0117 34.2833L71.8464 31.5992H66.311L65.1385 34.2983C65.0891 34.4103 64.9812 34.4832 64.8604 34.4832H63.5159L68.4019 23.4327H69.6495ZM71.3342 30.4186L69.1391 25.0634L66.8251 30.4186H71.3342ZM110.318 33.4409H114.794V34.4533H110.318V33.4409ZM80.9415 6.10987C82.6702 6.10987 84.2141 6.71694 85.2879 7.819C86.358 8.91545 86.9196 10.4079 86.9141 12.1357C86.9031 15.6399 84.4464 18.0868 80.9379 18.0868C79.2019 18.0868 77.6507 17.4797 76.5732 16.3739C75.5068 15.2812 74.947 13.7925 74.9543 12.0685C74.9671 8.56055 77.4293 6.10987 80.9415 6.10987ZM85.0519 10.3631C85.0263 10.2734 85.0007 10.1931 84.9732 10.1128C84.4043 8.46902 82.8897 7.37257 81.1153 7.32027C79.2495 7.26983 77.7111 8.21686 76.9976 9.86247C76.3446 11.3699 76.3482 12.8754 77.0123 14.3417C77.7421 15.9537 79.0025 16.8036 80.7586 16.8633C80.8269 16.8658 80.8946 16.8671 80.9617 16.8671C82.7214 16.8671 84.033 16.0527 84.7592 14.5098C84.8342 14.3529 84.9001 14.1848 84.9659 13.9999C85.3684 12.8399 85.3995 11.5492 85.0519 10.3631Z" fill="#2B2A29"/>
<path fill-rule="evenodd" clip-rule="evenodd" d="M36.1663 12.8978H42.4572L42.3987 14.8927C42.3987 26.087 35.1694 33.9695 25.5639 34.472V28.4181C25.5639 28.151 25.7633 27.9325 26.0231 27.9045C33.0767 27.1162 36.1663 20.6159 36.1663 14.8479V12.8978ZM42.3968 0V5.9922C42.3968 6.27799 42.17 6.51148 41.8883 6.51148H25.4779V19.5027H19.1029V0H42.3968ZM0.515741 0H17.0212V6.52455C9.75537 7.14843 7.56391 13.6487 7.56391 19.5027H1.62976C1.34623 19.5027 1.11391 19.2636 1.11757 18.9741C1.20537 14.0185 2.52611 9.75227 4.8255 6.52455H0.0090332V0.519275C0.0090332 0.231619 0.235862 0 0.515741 0ZM12.7005 27.9288H19.1084V34.472H12.7005V27.9288Z" fill="#1F52DE"/>
</g>
<defs>
<clipPath id="clip0_61_415">
<rect width="120" height="34.5" fill="white"/>
</clipPath>
</defs>
</svg>
