<svg width="200" height="24" viewBox="0 0 200 24" fill="none" xmlns="http://www.w3.org/2000/svg">
<g clip-path="url(#clip0_65_1121)">
<path d="M14.1256 0.245605V6.26338H11.7578C8.76669 6.26338 6.35669 8.63783 6.35669 11.5856C6.35669 14.5323 8.76669 16.9067 11.7567 16.9067H14.1256V22.9245C19.5256 21.9012 23.5567 17.2345 23.5567 11.5845C23.5567 5.97672 19.5267 1.31005 14.1256 0.245605Z" fill="#003791"/>
<path d="M11.7578 18.7889C7.72778 18.7889 4.44444 15.5556 4.44444 11.5856C4.44444 7.61556 7.72667 4.38111 11.7556 4.38111H12.2133V0H11.7567C5.27667 0 0 5.19889 0 11.5844C0 18.0122 5.27667 23.2111 11.7578 23.2111H12.2144V18.7911H11.7578V18.7889ZM40.1744 15.6378C39.2225 16.4079 38.0345 16.8269 36.81 16.8244C33.86 16.8244 31.4922 14.4911 31.4922 11.5844C31.4922 8.67889 33.8589 6.34556 36.81 6.34556C38.094 6.34005 39.3354 6.80577 40.2989 7.65444L42.1689 5.81333C40.6985 4.4896 38.7885 3.75974 36.81 3.76556C32.4056 3.76556 28.8744 7.28667 28.8744 11.5844C28.8744 15.8833 32.4056 19.4444 36.81 19.4444C38.8456 19.4444 40.6733 18.7078 42.0444 17.48L40.1744 15.6378ZM124.721 4.38L118.863 11.3389L112.963 4.38L112.922 4.46222V4.38H110.553V18.79H112.922V8.22778L118.863 15.1867L124.721 8.39222V18.79H127.048V4.38H124.721ZM59.7844 11.5844C59.7844 15.9244 56.2111 19.4033 51.8489 19.4033C47.4456 19.4033 43.9144 15.8833 43.9144 11.5844C43.9144 7.28667 47.4867 3.76556 51.8489 3.76556C56.2111 3.76556 59.7844 7.28667 59.7844 11.5844ZM57.1256 11.5844C57.1256 8.67889 54.7578 6.34556 51.8078 6.34556C48.8578 6.34556 46.49 8.67889 46.49 11.5844C46.49 14.4911 48.8578 16.8244 51.8078 16.8244C54.7578 16.8244 57.1256 14.4911 57.1256 11.5844ZM108.144 11.5844C108.144 15.9244 104.571 19.4033 100.209 19.4033C95.8045 19.4033 92.2733 15.8833 92.2733 11.5844C92.2733 7.28667 95.8467 3.76556 100.209 3.76556C104.612 3.76556 108.144 7.28667 108.144 11.5844ZM105.527 11.5844C105.527 8.67889 103.159 6.34556 100.209 6.34556C97.2589 6.34556 94.8911 8.67889 94.8911 11.5844C94.8911 14.4911 97.2589 16.8244 100.209 16.8244C103.117 16.8244 105.527 14.4911 105.527 11.5844ZM92.2322 4.38H89.0322L83.0089 10.4389H80.5578V4.38H78.2311V18.79H80.5578V12.7722H82.9667L88.9911 18.79H92.1489L85.0033 11.6256L92.2322 4.38Z" fill="#FF4B5F"/>
<path d="M190.778 4.37988H187.622L181.556 10.4388H179.105V4.37988H176.778V18.7899H179.105V12.7721H181.556L187.538 18.7899H190.696L183.591 11.6254L190.778 4.37988ZM156.378 18.7888H158.956L152.515 4.37988H149.856L143.417 18.7899H145.992L147.405 15.6788H154.967L156.378 18.7888ZM148.445 13.3854L151.186 7.32766L153.928 13.3854H148.443H148.445Z" fill="#003791"/>
<path d="M75.24 14.6143C75.2401 14.0447 75.1219 13.4813 74.893 12.9598C74.664 12.4382 74.3293 11.9699 73.91 11.5843C74.6989 10.8066 75.24 9.74211 75.24 8.55545C75.2365 7.44545 74.7926 6.38223 74.0057 5.59932C73.2188 4.81641 72.1534 4.37782 71.0434 4.37989H62.4856V18.8299H71.0434C73.37 18.7899 75.24 16.9066 75.24 14.6143ZM64.8534 6.71433H71.0023C72.0412 6.71433 72.8712 7.53211 72.8712 8.55545C72.8712 9.57878 72.0412 10.3977 71.0023 10.3977H64.8534V6.71322V6.71433ZM71.0023 16.4966H64.8534V12.7721H71.0434C72.0823 12.7721 72.9134 13.631 72.9134 14.6143C72.8712 15.6366 72.0412 16.4966 71.0023 16.4966Z" fill="#FF4B5F"/>
<path d="M171.501 4.42099V10.4388H162.984V4.42099H160.617V18.7488H162.984V12.771H171.501V18.7488H173.87V4.42099H171.501ZM142.585 14.6143C142.585 12.321 140.674 10.4388 138.348 10.4388H132.199V6.71322H141.173V4.37988H129.831V18.8299H138.348C140.674 18.7899 142.585 16.9066 142.585 14.6143ZM138.348 16.4966H132.199V12.7721H138.348C139.387 12.7721 140.218 13.631 140.218 14.6143C140.218 15.6366 139.387 16.4966 138.348 16.4966Z" fill="#003791"/>
</g>
<defs>
<clipPath id="clip0_65_1121">
<rect width="200" height="23.3333" fill="white"/>
</clipPath>
</defs>
</svg>
