<svg width="24" height="24" viewBox="0 0 24 24" fill="none" xmlns="http://www.w3.org/2000/svg">
<rect width="24" height="24" rx="12" fill="#4971FF"/>
<g clip-path="url(#clip0_63_4)">
<path d="M12.0731 6.54547C8.94692 6.54547 6.4104 9.08038 6.4104 12.2046C6.4104 13.4556 6.81558 14.6078 7.50077 15.546L6.77935 17.6793L9.02927 16.9781C9.90882 17.5377 10.9531 17.8637 12.0731 17.8637C15.1993 17.8637 17.7358 15.3287 17.7358 12.2046C17.7358 9.08038 15.1993 6.54547 12.0731 6.54547ZM14.6656 15.2399C13.6378 15.6514 12.4124 15.253 11.0717 14.2358C9.73093 13.2185 8.84809 11.7865 8.7888 10.7231C8.7295 9.65978 9.59587 9.12317 10.0669 9.12646C10.538 9.12976 11.0552 10.6342 11.0618 10.8647C11.0684 11.0984 10.4853 11.5132 10.4622 11.7107C10.4392 11.9083 11.2561 12.8827 11.602 13.1461C11.9446 13.4062 12.6529 13.9066 13.0185 13.8605C13.3809 13.8111 13.6214 13.0835 13.852 13.0375C14.0825 12.9914 15.3409 13.6169 15.4661 13.7782C15.5913 13.9428 15.5781 14.8777 14.6656 15.2399Z" fill="white"/>
</g>
<defs>
<clipPath id="clip0_63_4">
<rect width="12" height="12" fill="white" transform="translate(6 6.54547)"/>
</clipPath>
</defs>
</svg>
