<svg width="16" height="16" viewBox="0 0 16 16" fill="none" xmlns="http://www.w3.org/2000/svg">
<g clip-path="url(#clip0_63_653)">
<path d="M7.7375 0.059375C7.69062 0.090625 7.62188 0.159375 7.59062 0.20625C7.53438 0.290625 7.53125 0.371875 7.53125 1.42188C7.53125 2.47187 7.53438 2.55312 7.59062 2.6375C7.6875 2.78125 7.80625 2.84375 8 2.84375C8.19375 2.84375 8.3125 2.78125 8.40938 2.6375C8.46562 2.55312 8.46875 2.47187 8.46875 1.42188C8.46875 0.371875 8.46562 0.290625 8.40938 0.20625C8.3125 0.0625 8.19375 0 8 0C7.88438 0 7.8 0.01875 7.7375 0.059375Z" fill="#CC013D"/>
<path d="M2.47186 2.27504C2.41248 2.30317 2.33748 2.36567 2.30311 2.41254C2.21561 2.53129 2.19686 2.77504 2.26561 2.90942C2.33436 3.04692 3.56561 4.29067 3.74686 4.40942C3.97498 4.55629 4.26561 4.51254 4.41561 4.30629C4.50311 4.18754 4.52186 3.94379 4.45311 3.80942C4.38436 3.67192 3.15311 2.42817 2.97186 2.30942C2.80623 2.20317 2.63436 2.19067 2.47186 2.27504Z" fill="#CC013D"/>
<path d="M13.0281 2.30942C12.8469 2.42817 11.6156 3.67192 11.5469 3.80942C11.4781 3.94379 11.4969 4.18754 11.5844 4.30629C11.7344 4.51254 12.025 4.55629 12.2531 4.40942C12.4344 4.29067 13.6656 3.04692 13.7344 2.90942C13.8031 2.77504 13.7844 2.53129 13.6969 2.41254C13.5469 2.20629 13.2562 2.16254 13.0281 2.30942Z" fill="#CC013D"/>
<path d="M7.20312 3.84062C5.85625 4.09688 4.74687 4.94375 4.16875 6.17188C3.90625 6.725 3.78125 7.3125 3.78125 7.98438C3.78125 8.50938 3.84062 8.90625 3.98438 9.33125C4.19063 9.94688 4.46562 10.4062 4.94375 10.9313C5.43125 11.4656 5.56875 11.7969 5.6375 12.5906C5.6625 12.8594 5.70312 13.1375 5.73125 13.2125C5.78437 13.3625 5.96563 13.6469 6.0625 13.7344C6.12188 13.7875 6.125 13.8281 6.125 14.3281C6.125 14.775 6.13438 14.8937 6.18438 15.0375C6.33125 15.4688 6.65625 15.7938 7.08438 15.9406C7.2375 15.9937 7.34687 16 8 16C8.65313 16 8.7625 15.9937 8.91563 15.9406C9.34375 15.7938 9.66875 15.4688 9.81563 15.0375C9.86562 14.8937 9.875 14.775 9.875 14.3281C9.875 13.8281 9.87813 13.7875 9.9375 13.7344C10.0438 13.6375 10.2188 13.3531 10.2781 13.1781C10.3125 13.0812 10.3438 12.8625 10.3594 12.6406C10.4 11.9531 10.5781 11.4812 10.9563 11.0531C11.3656 10.5875 11.5938 10.2687 11.7812 9.89062C12.0906 9.26875 12.2188 8.70937 12.2188 7.9875C12.2188 7.275 12.0969 6.75 11.7781 6.10938C11.3719 5.2875 10.7469 4.65625 9.92188 4.23438C9.55938 4.05 9.10625 3.89687 8.70312 3.82812C8.32812 3.76562 7.57812 3.77187 7.20312 3.84062ZM8.8125 4.84375C9.3125 4.975 9.86562 5.28438 10.2594 5.65312C10.5969 5.96562 10.9406 6.5125 11.0938 6.96875C11.3063 7.61875 11.3063 8.40312 11.0875 9.04688C10.9781 9.36875 10.7562 9.75938 10.5312 10.0344C9.98125 10.7 9.89687 10.8125 9.76875 11.0625C9.53125 11.525 9.44375 11.8594 9.40625 12.4437C9.37813 12.8875 9.34063 12.9906 9.15625 13.1031C9.05 13.1688 9.02187 13.1719 8 13.1719C6.97813 13.1719 6.95 13.1688 6.84375 13.1031C6.65625 12.9875 6.62188 12.8906 6.59063 12.4125C6.53437 11.5406 6.29375 10.9719 5.70312 10.3125C5.40938 9.98438 5.225 9.73125 5.09375 9.46875C4.8625 9.00938 4.75 8.52812 4.75 7.9875C4.75 7.09062 5.06875 6.3125 5.69063 5.69063C6.14375 5.2375 6.67188 4.95 7.3125 4.80937C7.6875 4.72812 8.43125 4.74375 8.8125 4.84375ZM8.93125 14.4156C8.9125 14.75 8.8625 14.8719 8.6875 14.9781C8.58437 15.0437 8.54063 15.0469 8 15.0469C7.47813 15.0469 7.4125 15.0406 7.31875 14.9844C7.14375 14.8781 7.0875 14.75 7.06875 14.4187L7.05313 14.125H8H8.94688L8.93125 14.4156Z" fill="#CC013D"/>
<path d="M7.44687 5.70313C6.89062 5.825 6.34688 6.20625 6.00938 6.7125C5.81563 7.00313 5.7375 7.225 5.73438 7.49063C5.73438 7.6875 5.74375 7.725 5.8125 7.79688C5.92188 7.91563 6.04063 7.96875 6.1875 7.96875C6.425 7.96875 6.5875 7.83438 6.675 7.56563C6.78125 7.23125 7.07187 6.9 7.39062 6.74375C7.50625 6.68438 7.73438 6.63438 7.9875 6.60938C8.3125 6.575 8.46875 6.41875 8.46875 6.125C8.46875 5.93125 8.40625 5.8125 8.2625 5.71563C8.15313 5.64375 7.75 5.6375 7.44687 5.70313Z" fill="#CC013D"/>
<path d="M0.20625 7.59062C0.0625 7.6875 0 7.80625 0 8C0 8.19375 0.0625 8.3125 0.20625 8.40938C0.290625 8.46562 0.371875 8.46875 1.42188 8.46875C2.47187 8.46875 2.55313 8.46562 2.6375 8.40938C2.78125 8.3125 2.84375 8.19375 2.84375 8C2.84375 7.80625 2.78125 7.6875 2.6375 7.59062C2.55313 7.53438 2.47187 7.53125 1.42188 7.53125C0.371875 7.53125 0.290625 7.53438 0.20625 7.59062Z" fill="#CC013D"/>
<path d="M13.3625 7.59062C13.2188 7.6875 13.1562 7.80625 13.1562 8C13.1562 8.19375 13.2188 8.3125 13.3625 8.40938C13.4469 8.46562 13.5281 8.46875 14.5781 8.46875C15.6281 8.46875 15.7094 8.46562 15.7938 8.40938C15.9375 8.3125 16 8.19375 16 8C16 7.80625 15.9375 7.6875 15.7938 7.59062C15.7094 7.53438 15.6281 7.53125 14.5781 7.53125C13.5281 7.53125 13.4469 7.53438 13.3625 7.59062Z" fill="#CC013D"/>
</g>
<defs>
<clipPath id="clip0_63_653">
<rect width="16" height="16" fill="white"/>
</clipPath>
</defs>
</svg>
