<svg width="130" height="47" viewBox="0 0 130 47" fill="none" xmlns="http://www.w3.org/2000/svg">
<g clip-path="url(#clip0_65_1131)">
<path fill-rule="evenodd" clip-rule="evenodd" d="M8.83245 0L6.62296 6.05222H37.2415L39.451 0H8.83245ZM5.51752 9.07696L3.30803 15.1278H33.9266L36.1361 9.07696H5.51752ZM2.20949 18.1539L0 24.2048H30.6186L32.8267 18.1539H2.20949Z" fill="#009FDF"/>
<mask id="mask0_65_1131" style="mask-type:luminance" maskUnits="userSpaceOnUse" x="45" y="9" width="85" height="38">
<path d="M45.9377 46.267H129.753V9.19336H45.9377V46.267Z" fill="#0A2973"/>
</mask>
<g mask="url(#mask0_65_1131)">
<path fill-rule="evenodd" clip-rule="evenodd" d="M65.0933 26.5112V26.6389C66.4926 27.1525 67.8292 28.0506 68.5295 28.6273C70.6932 30.4235 71.6483 32.7964 71.6483 35.8752C71.6483 40.9438 68.9751 44.5994 64.5837 45.7543C63.2471 46.1388 61.8478 46.2679 59.2372 46.2679H45.9377V9.19336H57.7112C60.1297 9.19336 61.7837 9.32106 63.2471 9.70555C67.5117 10.8604 70.3117 13.8115 70.3117 18.4929C70.3117 20.9949 69.4206 23.1124 67.9573 24.5227C67.321 25.164 66.4299 25.9344 65.0933 26.5112ZM53.3198 30.4235V40.1734H58.4115C59.9375 40.1734 61.3382 40.0457 62.3574 39.0831C63.3752 38.1204 63.8207 36.9024 63.8207 35.2985C63.8207 34.0804 63.5019 32.9255 62.8656 32.092C61.7837 30.7448 60.4471 30.4235 58.1567 30.4235H53.3198ZM53.2558 24.0091H57.3924C58.6649 24.0091 59.3012 24.0091 59.9375 23.8169C61.657 23.3033 62.7389 21.7653 62.7389 19.6477C62.7389 17.1471 61.593 16.0554 59.9375 15.5432C59.2372 15.3509 58.5382 15.2864 57.1376 15.2864H53.2558V24.0091ZM82.7214 46.2679V15.4141H72.0939V9.19336H101.624L99.524 15.4141H90.1035V46.2679H82.7214ZM103.914 46.2679V9.19336H127.844L125.744 15.4141H111.233V23.6246H117.152C121.925 23.6246 124.408 24.7795 126.126 26.2544C127.462 27.4093 129.753 29.9744 129.753 35.0431C129.753 40.0457 127.398 42.8032 125.425 44.2149C123.135 45.8174 120.716 46.2679 115.815 46.2679H103.914ZM111.233 40.0457H116.771C118.87 40.0457 120.143 39.5321 121.034 38.3772C121.479 37.8005 122.116 36.7733 122.116 34.8494C122.116 32.9255 121.479 31.5784 120.207 30.6157C119.444 30.039 118.425 29.719 116.707 29.719H111.233V40.0457Z" fill="#0A2973"/>
</g>
</g>
<defs>
<clipPath id="clip0_65_1131">
<rect width="130" height="46.6304" fill="white"/>
</clipPath>
</defs>
</svg>
